G04 EAGLE Gerber X2 export*
%TF.Part,Single*%
%TF.FileFunction,Copper,L2,Bot,Mixed*%
%TF.FilePolarity,Positive*%
%TF.GenerationSoftware,Autodesk,EAGLE,8.7.0*%
%TF.CreationDate,2018-03-25T19:01:44Z*%
G75*
%MOMM*%
%FSLAX34Y34*%
%LPD*%
%AMOC8*
5,1,8,0,0,1.08239X$1,22.5*%
G01*
%ADD10P,1.732040X8X22.500000*%
%ADD11P,1.732040X8X112.500000*%
%ADD12P,1.732040X8X202.500000*%
%ADD13P,1.732040X8X292.500000*%
%ADD14C,1.676400*%
%ADD15C,2.514600*%
%ADD16C,1.524000*%
%ADD17P,1.632244X8X22.500000*%
%ADD18P,1.429621X8X22.500000*%
%ADD19C,1.800000*%
%ADD20C,0.228600*%
%ADD21C,0.756400*%


D10*
X406400Y190500D03*
X431800Y190500D03*
D11*
X215900Y127000D03*
X215900Y152400D03*
D10*
X406400Y139700D03*
X431800Y139700D03*
X342900Y190500D03*
X368300Y190500D03*
X279400Y190500D03*
X304800Y190500D03*
X279400Y127000D03*
X304800Y127000D03*
D12*
X596900Y177800D03*
X571500Y177800D03*
D13*
X177800Y165100D03*
X177800Y139700D03*
X812800Y127000D03*
X812800Y101600D03*
D12*
X609600Y127000D03*
X584200Y127000D03*
D14*
X1016000Y127000D03*
X914400Y127000D03*
X1295400Y266700D03*
X1193800Y266700D03*
D15*
X1339088Y533527D02*
X1339088Y558673D01*
X1378712Y558673D02*
X1378712Y533527D01*
X1150112Y50673D02*
X1150112Y25527D01*
X1110488Y25527D02*
X1110488Y50673D01*
D16*
X495300Y33020D02*
X495300Y17780D01*
X469900Y17780D02*
X469900Y33020D01*
X444500Y33020D02*
X444500Y17780D01*
X419100Y17780D02*
X419100Y33020D01*
X393700Y33020D02*
X393700Y17780D01*
X368300Y17780D02*
X368300Y33020D01*
X342900Y33020D02*
X342900Y17780D01*
X317500Y17780D02*
X317500Y33020D01*
X1554480Y25400D02*
X1569720Y25400D01*
X1569720Y50800D02*
X1554480Y50800D01*
X1554480Y76200D02*
X1569720Y76200D01*
X1569720Y101600D02*
X1554480Y101600D01*
X1554480Y127000D02*
X1569720Y127000D01*
X1569720Y152400D02*
X1554480Y152400D01*
X1554480Y177800D02*
X1569720Y177800D01*
X1569720Y203200D02*
X1554480Y203200D01*
X1554480Y228600D02*
X1569720Y228600D01*
X1569720Y254000D02*
X1554480Y254000D01*
X1554480Y279400D02*
X1569720Y279400D01*
X1569720Y304800D02*
X1554480Y304800D01*
X-55880Y25400D02*
X-71120Y25400D01*
X-71120Y50800D02*
X-55880Y50800D01*
X-55880Y76200D02*
X-71120Y76200D01*
X-71120Y101600D02*
X-55880Y101600D01*
X-55880Y127000D02*
X-71120Y127000D01*
X-71120Y152400D02*
X-55880Y152400D01*
X-55880Y177800D02*
X-71120Y177800D01*
X-71120Y203200D02*
X-55880Y203200D01*
X-55880Y228600D02*
X-71120Y228600D01*
X-71120Y254000D02*
X-55880Y254000D01*
X-55880Y279400D02*
X-71120Y279400D01*
X-71120Y304800D02*
X-55880Y304800D01*
X-55880Y508000D02*
X-71120Y508000D01*
X-71120Y482600D02*
X-55880Y482600D01*
X-55880Y457200D02*
X-71120Y457200D01*
X-71120Y431800D02*
X-55880Y431800D01*
X-55880Y406400D02*
X-71120Y406400D01*
X-71120Y381000D02*
X-55880Y381000D01*
X-55880Y355600D02*
X-71120Y355600D01*
X-71120Y330200D02*
X-55880Y330200D01*
X1554480Y330200D02*
X1569720Y330200D01*
X1569720Y355600D02*
X1554480Y355600D01*
X1554480Y381000D02*
X1569720Y381000D01*
X1569720Y406400D02*
X1554480Y406400D01*
X1554480Y431800D02*
X1569720Y431800D01*
X1569720Y457200D02*
X1554480Y457200D01*
X1554480Y482600D02*
X1569720Y482600D01*
X1569720Y508000D02*
X1554480Y508000D01*
D15*
X1061212Y50673D02*
X1061212Y25527D01*
X1021588Y25527D02*
X1021588Y50673D01*
D16*
X673100Y449580D02*
X673100Y464820D01*
X698500Y464820D02*
X698500Y449580D01*
X723900Y449580D02*
X723900Y464820D01*
X749300Y464820D02*
X749300Y449580D01*
X774700Y449580D02*
X774700Y464820D01*
X800100Y464820D02*
X800100Y449580D01*
X825500Y449580D02*
X825500Y464820D01*
X850900Y464820D02*
X850900Y449580D01*
D17*
X520700Y546100D03*
X520700Y571500D03*
X546100Y546100D03*
X546100Y571500D03*
X571500Y546100D03*
X571500Y571500D03*
X596900Y546100D03*
X596900Y571500D03*
X622300Y546100D03*
X622300Y571500D03*
X647700Y546100D03*
X647700Y571500D03*
X673100Y546100D03*
X673100Y571500D03*
X698500Y546100D03*
X698500Y571500D03*
X723900Y546100D03*
X723900Y571500D03*
X749300Y546100D03*
X749300Y571500D03*
X774700Y546100D03*
X774700Y571500D03*
X800100Y546100D03*
X800100Y571500D03*
X825500Y546100D03*
X825500Y571500D03*
X850900Y546100D03*
X850900Y571500D03*
X876300Y546100D03*
X876300Y571500D03*
X901700Y546100D03*
X901700Y571500D03*
X927100Y546100D03*
X927100Y571500D03*
X952500Y546100D03*
X952500Y571500D03*
X977900Y546100D03*
X977900Y571500D03*
X1003300Y546100D03*
X1003300Y571500D03*
D16*
X520700Y33020D02*
X520700Y17780D01*
X546100Y17780D02*
X546100Y33020D01*
X571500Y33020D02*
X571500Y17780D01*
X596900Y17780D02*
X596900Y33020D01*
X622300Y33020D02*
X622300Y17780D01*
X647700Y17780D02*
X647700Y33020D01*
X673100Y33020D02*
X673100Y17780D01*
X698500Y17780D02*
X698500Y33020D01*
D18*
X1371600Y292100D03*
X1498600Y292100D03*
X1244600Y114300D03*
X1371600Y114300D03*
D16*
X660400Y195580D02*
X660400Y210820D01*
X685800Y210820D02*
X685800Y195580D01*
X711200Y195580D02*
X711200Y210820D01*
X927100Y210820D02*
X927100Y195580D01*
X952500Y195580D02*
X952500Y210820D01*
X977900Y210820D02*
X977900Y195580D01*
X838200Y195580D02*
X838200Y210820D01*
X863600Y210820D02*
X863600Y195580D01*
X889000Y195580D02*
X889000Y210820D01*
X749300Y210820D02*
X749300Y195580D01*
X774700Y195580D02*
X774700Y210820D01*
X800100Y210820D02*
X800100Y195580D01*
X1206500Y172720D02*
X1206500Y157480D01*
X1231900Y157480D02*
X1231900Y172720D01*
X1257300Y172720D02*
X1257300Y157480D01*
D15*
X1581912Y533527D02*
X1581912Y558673D01*
X1542288Y558673D02*
X1542288Y533527D01*
X70612Y533527D02*
X70612Y558673D01*
X30988Y558673D02*
X30988Y533527D01*
X1493012Y533527D02*
X1493012Y558673D01*
X1453388Y558673D02*
X1453388Y533527D01*
X-30988Y533527D02*
X-30988Y558673D01*
X-70612Y558673D02*
X-70612Y533527D01*
X132588Y533527D02*
X132588Y558673D01*
X172212Y558673D02*
X172212Y533527D01*
X464312Y533527D02*
X464312Y558673D01*
X424688Y558673D02*
X424688Y533527D01*
X781812Y50673D02*
X781812Y25527D01*
X742188Y25527D02*
X742188Y50673D01*
X1137412Y533527D02*
X1137412Y558673D01*
X1097788Y558673D02*
X1097788Y533527D01*
X1264412Y533527D02*
X1264412Y558673D01*
X1224788Y558673D02*
X1224788Y533527D01*
X870712Y50673D02*
X870712Y25527D01*
X831088Y25527D02*
X831088Y50673D01*
X375412Y533527D02*
X375412Y558673D01*
X335788Y558673D02*
X335788Y533527D01*
X273812Y533527D02*
X273812Y558673D01*
X234188Y558673D02*
X234188Y533527D01*
D19*
X546100Y364600D02*
X546100Y346600D01*
X533400Y397400D02*
X533400Y415400D01*
X520700Y364600D02*
X520700Y346600D01*
X508000Y397400D02*
X508000Y415400D01*
X495300Y364600D02*
X495300Y346600D01*
X482600Y397400D02*
X482600Y415400D01*
X558800Y415400D02*
X558800Y397400D01*
X571500Y364600D02*
X571500Y346600D01*
X584200Y397400D02*
X584200Y415400D01*
X596900Y364600D02*
X596900Y346600D01*
X609600Y397400D02*
X609600Y415400D01*
X469900Y364600D02*
X469900Y346600D01*
X457200Y397400D02*
X457200Y415400D01*
X622300Y364600D02*
X622300Y346600D01*
X635000Y397400D02*
X635000Y415400D01*
D18*
X1244600Y63500D03*
X1371600Y63500D03*
X1244600Y25400D03*
X1371600Y25400D03*
D15*
X108712Y25527D02*
X108712Y50673D01*
X69088Y50673D02*
X69088Y25527D01*
X1453388Y25527D02*
X1453388Y50673D01*
X1493012Y50673D02*
X1493012Y25527D01*
D13*
X406400Y266700D03*
X406400Y241300D03*
D15*
X19812Y50673D02*
X19812Y25527D01*
X-19812Y25527D02*
X-19812Y50673D01*
X197612Y50673D02*
X197612Y25527D01*
X157988Y25527D02*
X157988Y50673D01*
X286512Y50673D02*
X286512Y25527D01*
X246888Y25527D02*
X246888Y50673D01*
D20*
X546735Y26670D02*
X567690Y47625D01*
X567690Y68580D01*
X563880Y72390D01*
X617220Y89535D02*
X621030Y85725D01*
X769620Y85725D01*
X779145Y95250D01*
X546735Y26670D02*
X546100Y25400D01*
X992505Y190500D02*
X992505Y217170D01*
X992505Y190500D02*
X986790Y184785D01*
X941070Y184785D01*
X937260Y180975D01*
X819150Y180975D01*
X802005Y163830D01*
X802005Y137160D01*
X811530Y127635D01*
X812800Y127000D01*
X462915Y504825D02*
X462915Y544830D01*
X462915Y504825D02*
X457200Y499110D01*
X457200Y466725D01*
X461010Y462915D01*
X428625Y409575D02*
X422910Y403860D01*
X422910Y398145D01*
X424815Y396240D01*
X424815Y381000D01*
X432435Y373380D01*
X432435Y241935D01*
X436245Y238125D01*
X466725Y131445D02*
X466725Y120015D01*
X461010Y114300D01*
X461010Y78105D01*
X455295Y72390D01*
X462915Y544830D02*
X464312Y546100D01*
D21*
X563880Y72390D03*
X617220Y89535D03*
X779145Y95250D03*
X992505Y217170D03*
X461010Y462915D03*
X428625Y409575D03*
X436245Y238125D03*
X466725Y131445D03*
X455295Y72390D03*
D20*
X1101090Y38100D02*
X1110488Y38100D01*
X1101090Y38100D02*
X1072515Y66675D01*
X1051560Y66675D01*
X1022985Y38100D01*
X1021588Y38100D01*
X598170Y508635D02*
X598170Y544830D01*
X598170Y508635D02*
X615315Y491490D01*
X615315Y483870D01*
X689610Y432435D02*
X697230Y424815D01*
X723900Y424815D01*
X744855Y350520D02*
X748665Y350520D01*
X744855Y350520D02*
X737235Y342900D01*
X718185Y342900D01*
X689610Y314325D01*
X617220Y289560D02*
X617220Y260985D01*
X581025Y224790D01*
X567690Y224790D01*
X561975Y219075D01*
X561975Y215265D01*
X544830Y198120D01*
X541020Y198120D01*
X533400Y190500D01*
X533400Y120015D01*
X558165Y95250D01*
X558165Y81915D01*
X535305Y59055D01*
X531495Y59055D01*
X521970Y49530D01*
X521970Y26670D01*
X598170Y544830D02*
X596900Y546100D01*
X521970Y26670D02*
X520700Y25400D01*
D21*
X615315Y483870D03*
X689610Y432435D03*
X723900Y424815D03*
X748665Y350520D03*
X689610Y314325D03*
X617220Y289560D03*
D20*
X596900Y571500D02*
X586740Y571500D01*
X573405Y558165D01*
X567690Y558165D01*
X560070Y550545D01*
X560070Y542925D01*
X561975Y541020D01*
X561975Y533400D01*
X548640Y520065D01*
X516255Y520065D01*
X510540Y525780D01*
X502920Y525780D01*
X495300Y518160D01*
X491490Y518160D01*
X415290Y441960D02*
X409575Y436245D01*
X409575Y426720D01*
X405765Y422910D01*
X419100Y409575D02*
X419100Y396240D01*
X421005Y394335D01*
X421005Y379095D01*
X428625Y371475D01*
X428625Y222885D01*
X489585Y140970D02*
X489585Y125730D01*
X497205Y118110D01*
X497205Y93345D01*
X495300Y91440D01*
X495300Y25400D01*
D21*
X491490Y518160D03*
X415290Y441960D03*
X405765Y422910D03*
X419100Y409575D03*
X428625Y222885D03*
X489585Y140970D03*
D20*
X621030Y560070D02*
X621030Y571500D01*
X621030Y560070D02*
X611505Y550545D01*
X611505Y541020D01*
X630555Y521970D01*
X630555Y508635D01*
X807720Y329565D02*
X821055Y329565D01*
X807720Y329565D02*
X802005Y323850D01*
X802005Y310515D01*
X775335Y278130D02*
X765810Y287655D01*
X666750Y287655D01*
X638175Y259080D01*
X638175Y224790D01*
X605790Y192405D01*
X596265Y192405D01*
X582930Y179070D01*
X582930Y173355D01*
X575310Y165735D01*
X563880Y165735D01*
X560070Y169545D01*
X502920Y89535D02*
X499110Y85725D01*
X499110Y47625D01*
X506730Y40005D01*
X621030Y571500D02*
X622300Y571500D01*
D21*
X630555Y508635D03*
X821055Y329565D03*
X802005Y310515D03*
X775335Y278130D03*
X560070Y169545D03*
X502920Y89535D03*
X506730Y40005D03*
D20*
X-62865Y508635D02*
X-62865Y516255D01*
X-51435Y527685D01*
X-51435Y563880D01*
X-34290Y581025D01*
X236220Y581025D01*
X253365Y563880D01*
X253365Y525780D01*
X382905Y396240D01*
X-62865Y508635D02*
X-63500Y508000D01*
X1003935Y571500D02*
X1013460Y581025D01*
X1150620Y581025D01*
X1213485Y518160D01*
X1003935Y571500D02*
X1003300Y571500D01*
X558165Y182880D02*
X556260Y184785D01*
X556260Y198120D01*
X567690Y209550D01*
X571500Y209550D01*
X621030Y259080D01*
X621030Y283845D01*
X640080Y302895D01*
X784860Y302895D01*
X798195Y289560D01*
X821055Y289560D01*
X826770Y283845D01*
X832485Y283845D01*
X908685Y360045D01*
X946785Y360045D01*
X954405Y367665D01*
X979170Y367665D01*
X984885Y361950D01*
X1028700Y411480D02*
X1032510Y411480D01*
X1028700Y411480D02*
X986790Y453390D01*
X986790Y533400D01*
X992505Y539115D01*
X992505Y552450D01*
X1002030Y561975D01*
X1002030Y571500D01*
X1003300Y571500D01*
D21*
X382905Y396240D03*
X1213485Y518160D03*
X558165Y182880D03*
X984885Y361950D03*
X1032510Y411480D03*
D20*
X470535Y51435D02*
X444500Y25400D01*
X533400Y51435D02*
X582930Y100965D01*
X582930Y108585D01*
X670560Y363855D02*
X689610Y382905D01*
X1240155Y146685D02*
X1257300Y163830D01*
X1240155Y146685D02*
X969645Y146685D01*
X904875Y81915D01*
X887730Y81915D01*
X883920Y85725D01*
X798195Y85725D01*
X725805Y158115D01*
X640080Y158115D01*
X609600Y127635D01*
X1257300Y163830D02*
X1257300Y165100D01*
X609600Y127635D02*
X609600Y127000D01*
D21*
X470535Y51435D03*
X533400Y51435D03*
X582930Y108585D03*
X689610Y382905D03*
X670560Y363855D03*
D20*
X72390Y321945D02*
X72390Y272415D01*
X97155Y247650D01*
X230505Y247650D01*
X268605Y209550D01*
X268605Y200025D01*
X278130Y190500D01*
X279400Y190500D01*
X813435Y238125D02*
X817245Y234315D01*
X824865Y234315D01*
X828675Y230505D01*
X984885Y230505D01*
X1034415Y280035D01*
X1034415Y283845D01*
X1040130Y289560D01*
X1061085Y289560D01*
X1064895Y285750D01*
X1323975Y285750D01*
X1327785Y289560D01*
X762000Y161925D02*
X542925Y161925D01*
X762000Y161925D02*
X781050Y180975D01*
D21*
X72390Y321945D03*
X813435Y238125D03*
X1327785Y289560D03*
X542925Y161925D03*
X781050Y180975D03*
D20*
X-55245Y483870D02*
X-62865Y483870D01*
X-55245Y483870D02*
X11430Y550545D01*
X11430Y563880D01*
X24765Y577215D01*
X78105Y577215D01*
X112395Y542925D01*
X112395Y516255D01*
X220980Y407670D01*
X289560Y407670D01*
X342900Y354330D01*
X-62865Y483870D02*
X-63500Y482600D01*
X979170Y560070D02*
X979170Y571500D01*
X979170Y560070D02*
X988695Y550545D01*
X988695Y541020D01*
X982980Y535305D01*
X982980Y451485D01*
X1034415Y400050D01*
X1038225Y400050D02*
X1104900Y400050D01*
X1038225Y400050D02*
X1034415Y400050D01*
X1104900Y400050D02*
X1118235Y413385D01*
X1192530Y413385D01*
X1203960Y424815D01*
X1483995Y424815D01*
X1552575Y356235D01*
X1562100Y356235D01*
X979170Y571500D02*
X977900Y571500D01*
X1562100Y356235D02*
X1562100Y355600D01*
X542925Y318135D02*
X539115Y314325D01*
X542925Y318135D02*
X546735Y318135D01*
X556260Y327660D01*
X619125Y327660D01*
X655320Y291465D02*
X659130Y291465D01*
X662940Y295275D01*
X781050Y295275D01*
X809625Y266700D01*
X815340Y266700D01*
X826770Y255270D01*
X830580Y255270D01*
X836295Y260985D01*
X836295Y264795D01*
X843915Y272415D01*
X843915Y278130D01*
X914400Y348615D01*
X960120Y348615D01*
X963930Y344805D01*
X977265Y344805D01*
X1038225Y400050D02*
X1038225Y403860D01*
D21*
X342900Y354330D03*
X539115Y314325D03*
X619125Y327660D03*
X655320Y291465D03*
X977265Y344805D03*
X1038225Y403860D03*
D20*
X952500Y561975D02*
X952500Y571500D01*
X952500Y561975D02*
X963930Y550545D01*
X963930Y542925D01*
X962025Y541020D01*
X962025Y510540D01*
X954405Y502920D01*
X851535Y388620D02*
X855345Y384810D01*
X851535Y388620D02*
X828675Y388620D01*
X821055Y381000D01*
X811530Y381000D01*
X800100Y392430D01*
X689610Y392430D01*
D21*
X954405Y502920D03*
X855345Y384810D03*
X689610Y392430D03*
D20*
X704850Y512445D02*
X708660Y516255D01*
X704850Y512445D02*
X704850Y491490D01*
D21*
X708660Y516255D03*
X704850Y491490D03*
D20*
X876300Y561975D02*
X876300Y571500D01*
X876300Y561975D02*
X889635Y548640D01*
X889635Y542925D01*
X901065Y531495D01*
X916305Y531495D01*
X1089660Y354330D02*
X1093470Y350520D01*
X1093470Y342900D01*
X1135380Y300990D01*
X1162050Y300990D01*
X1173480Y312420D01*
X1310640Y312420D01*
X1335405Y337185D01*
X1352550Y337185D01*
X1362075Y327660D01*
X1470660Y327660D01*
X1474470Y331470D01*
X1506855Y331470D01*
X1535430Y302895D01*
D21*
X916305Y531495D03*
X1089660Y354330D03*
X1535430Y302895D03*
D20*
X851535Y560070D02*
X851535Y571500D01*
X851535Y560070D02*
X864870Y546735D01*
X864870Y542925D01*
X866775Y541020D01*
X866775Y512445D01*
X862965Y508635D01*
X862965Y501015D01*
X876300Y487680D01*
X904875Y487680D01*
X927735Y464820D01*
X941070Y464820D01*
X992505Y413385D01*
X992505Y398145D01*
X988695Y394335D01*
X988695Y390525D01*
X998220Y381000D01*
X1102995Y381000D01*
X1127760Y405765D01*
X1196340Y405765D01*
X1207770Y417195D01*
X1293495Y417195D01*
X1304925Y405765D01*
X1485900Y405765D01*
X1535430Y356235D01*
X1535430Y327660D01*
X1543050Y320040D01*
X1543050Y270510D01*
X1558290Y255270D01*
X1562100Y255270D01*
X851535Y571500D02*
X850900Y571500D01*
X1562100Y255270D02*
X1562100Y254000D01*
X826770Y560070D02*
X826770Y571500D01*
X826770Y560070D02*
X840105Y546735D01*
X840105Y541020D01*
X859155Y521970D01*
X893445Y520065D02*
X904875Y508635D01*
X904875Y504825D01*
X925830Y483870D01*
X933450Y483870D01*
X1000125Y417195D01*
X1000125Y401955D01*
X1005840Y396240D01*
X1106805Y396240D01*
X1120140Y409575D01*
X1194435Y409575D01*
X1205865Y421005D01*
X1295400Y421005D01*
X1306830Y409575D01*
X1487805Y409575D01*
X1539240Y358140D01*
X1539240Y329565D01*
X1552575Y316230D01*
X1573530Y316230D01*
X1583055Y306705D01*
X1583055Y245745D01*
X1565910Y228600D01*
X1562100Y228600D01*
X826770Y571500D02*
X825500Y571500D01*
D21*
X859155Y521970D03*
X893445Y520065D03*
D20*
X800100Y561975D02*
X800100Y571500D01*
X800100Y561975D02*
X813435Y548640D01*
X813435Y542925D01*
X821055Y535305D01*
X832485Y535305D01*
X859155Y508635D01*
X859155Y499110D01*
X874395Y483870D01*
X899160Y483870D01*
X914400Y468630D01*
X914400Y447675D01*
X1068705Y293370D01*
X1110615Y293370D01*
X1114425Y297180D01*
D21*
X1114425Y297180D03*
D20*
X775335Y560070D02*
X775335Y571500D01*
X775335Y560070D02*
X788670Y546735D01*
X788670Y542925D01*
X796290Y535305D01*
X800100Y535305D01*
X807720Y527685D01*
X828675Y527685D01*
X838200Y518160D01*
X838200Y514350D01*
X887730Y512445D02*
X895350Y512445D01*
X901065Y506730D01*
X901065Y502920D01*
X927735Y476250D01*
X931545Y476250D01*
X931545Y440055D02*
X931545Y436245D01*
X1070610Y297180D01*
X1095375Y297180D01*
X1099185Y300990D01*
X1125855Y274320D02*
X1129665Y278130D01*
X1245870Y278130D01*
X1316355Y207645D01*
X1354455Y207645D01*
X1405890Y156210D01*
X1537335Y156210D01*
X1558290Y177165D01*
X1562100Y177165D01*
X775335Y571500D02*
X774700Y571500D01*
X1562100Y177800D02*
X1562100Y177165D01*
D21*
X838200Y514350D03*
X887730Y512445D03*
X931545Y476250D03*
X931545Y440055D03*
X1099185Y300990D03*
X1125855Y274320D03*
D20*
X750570Y560070D02*
X750570Y571500D01*
X750570Y560070D02*
X763905Y546735D01*
X763905Y541020D01*
X773430Y531495D01*
X798195Y531495D01*
X851535Y478155D01*
X876300Y464820D02*
X918210Y422910D01*
X1085850Y367665D02*
X1097280Y356235D01*
X1097280Y344805D01*
X1137285Y304800D01*
X1160145Y304800D01*
X1171575Y316230D01*
X1190625Y316230D01*
X1194435Y320040D01*
X1243965Y270510D02*
X1247775Y270510D01*
X1314450Y203835D01*
X1352550Y203835D01*
X1403985Y152400D01*
X1562100Y152400D01*
X750570Y571500D02*
X749300Y571500D01*
D21*
X851535Y478155D03*
X876300Y464820D03*
X918210Y422910D03*
X1085850Y367665D03*
X1194435Y320040D03*
X1243965Y270510D03*
D20*
X723900Y565785D02*
X723900Y571500D01*
X723900Y565785D02*
X714375Y556260D01*
X718185Y516255D02*
X718185Y491490D01*
X708660Y417195D02*
X708660Y413385D01*
X714375Y407670D01*
X893445Y407670D01*
X901065Y415290D01*
X910590Y415290D01*
X918210Y407670D01*
X969645Y407670D02*
X969645Y403860D01*
X996315Y377190D01*
X1104900Y377190D01*
X1125855Y398145D01*
X1148715Y398145D01*
X1150620Y396240D01*
X1150620Y392430D01*
X1162050Y381000D01*
X1177290Y381000D01*
X1209675Y413385D01*
X1291590Y413385D01*
X1303020Y401955D01*
X1483995Y401955D01*
X1531620Y354330D01*
X1531620Y321945D01*
D21*
X714375Y556260D03*
X718185Y516255D03*
X718185Y491490D03*
X708660Y417195D03*
X918210Y407670D03*
X969645Y407670D03*
X1531620Y321945D03*
D20*
X683895Y571500D02*
X673100Y571500D01*
X683895Y571500D02*
X697230Y558165D01*
X701040Y558165D01*
X712470Y546735D01*
X712470Y542925D01*
X720090Y535305D01*
X731520Y535305D01*
X735330Y539115D01*
X763905Y512445D02*
X767715Y516255D01*
X763905Y512445D02*
X763905Y495300D01*
X817245Y392430D02*
X821055Y392430D01*
X824865Y396240D01*
X914400Y396240D01*
X923925Y386715D01*
X923925Y367665D01*
X1013460Y220980D02*
X1017270Y220980D01*
X1068705Y169545D01*
X1068705Y165735D01*
D21*
X735330Y539115D03*
X767715Y516255D03*
X763905Y495300D03*
X817245Y392430D03*
X923925Y367665D03*
X1013460Y220980D03*
X1068705Y165735D03*
D20*
X647700Y561975D02*
X647700Y571500D01*
X647700Y561975D02*
X636270Y550545D01*
X636270Y542925D01*
X647700Y531495D01*
X647700Y502920D01*
X636270Y491490D01*
X657225Y470535D02*
X662940Y476250D01*
X657225Y470535D02*
X657225Y443865D01*
X691515Y409575D01*
X706755Y409575D01*
X712470Y403860D01*
X899160Y403860D01*
X902970Y407670D01*
D21*
X636270Y491490D03*
X662940Y476250D03*
X902970Y407670D03*
D20*
X571500Y501015D02*
X554355Y483870D01*
X508635Y483870D01*
X504825Y487680D01*
X501015Y487680D01*
X466725Y453390D01*
X466725Y422910D01*
X470535Y419100D01*
X470535Y386715D01*
X453390Y369570D01*
X453390Y323850D01*
X478155Y299085D01*
X478155Y120015D01*
X468630Y110490D01*
X468630Y89535D01*
X487680Y70485D01*
X510540Y70485D02*
X537210Y70485D01*
X615315Y53340D02*
X621030Y59055D01*
X702945Y59055D01*
X714375Y70485D01*
X849630Y70485D01*
X857250Y62865D01*
X861060Y62865D01*
X868680Y70485D01*
X1000125Y89535D02*
X1015365Y74295D01*
X1034415Y74295D01*
X1087755Y127635D01*
X1219200Y127635D01*
X1226820Y120015D01*
X1226820Y100965D01*
X1240155Y87630D01*
X1346835Y87630D01*
X1485900Y68580D02*
X1514475Y68580D01*
X1556385Y26670D01*
X1562100Y26670D01*
X1562100Y25400D01*
D21*
X571500Y501015D03*
X487680Y70485D03*
X510540Y70485D03*
X537210Y70485D03*
X615315Y53340D03*
X868680Y70485D03*
X1000125Y89535D03*
X1346835Y87630D03*
X1485900Y68580D03*
D20*
X927735Y563880D02*
X927735Y571500D01*
X927735Y563880D02*
X937260Y554355D01*
X1085850Y344805D02*
X1133475Y297180D01*
X1163955Y297180D01*
X1175385Y308610D01*
X1312545Y308610D01*
X1337310Y333375D01*
X1350645Y333375D01*
X1360170Y323850D01*
X1472565Y323850D01*
X1476375Y327660D01*
X1504950Y327660D01*
X1520190Y312420D01*
X1520190Y308610D01*
X927735Y571500D02*
X927100Y571500D01*
D21*
X937260Y554355D03*
X1085850Y344805D03*
X1520190Y308610D03*
D20*
X590550Y531495D02*
X571500Y531495D01*
X552450Y512445D01*
X504825Y512445D01*
X430530Y447675D02*
X424815Y441960D01*
X424815Y436245D01*
X419100Y430530D01*
X419100Y426720D01*
X405765Y413385D01*
X405765Y407670D01*
X339090Y340995D01*
X163830Y340995D01*
X152400Y329565D01*
X-9525Y329565D01*
X-59055Y280035D01*
X-62865Y280035D01*
X-63500Y279400D01*
D21*
X590550Y531495D03*
X504825Y512445D03*
X430530Y447675D03*
D20*
X647700Y544830D02*
X651510Y541020D01*
X651510Y495300D01*
X653415Y493395D01*
X653415Y489585D01*
X615315Y451485D01*
X594360Y451485D01*
X571500Y382905D02*
X558165Y369570D01*
X558165Y340995D01*
X542925Y325755D01*
X531495Y325755D01*
X481965Y276225D01*
X481965Y123825D01*
X489585Y116205D01*
X647700Y544830D02*
X647700Y546100D01*
D21*
X594360Y451485D03*
X571500Y382905D03*
X489585Y116205D03*
D20*
X590550Y521970D02*
X584835Y527685D01*
X573405Y527685D01*
X554355Y508635D01*
X510540Y508635D01*
X504825Y502920D01*
X432435Y438150D02*
X422910Y428625D01*
X422910Y424815D01*
X409575Y411480D01*
X409575Y400050D01*
X417195Y392430D01*
X417195Y377190D01*
X424815Y369570D01*
X424815Y232410D01*
X403860Y211455D01*
X354330Y211455D01*
X348615Y205740D01*
X329565Y205740D01*
X327660Y203835D01*
X327660Y180975D01*
X314325Y167640D01*
X201930Y167640D01*
X184785Y150495D01*
X171450Y150495D01*
X158115Y163830D01*
X158115Y169545D01*
X66675Y260985D01*
X-26670Y260985D01*
X-59055Y228600D01*
X-63500Y228600D01*
D21*
X590550Y521970D03*
X504825Y502920D03*
X432435Y438150D03*
D20*
X687705Y546735D02*
X697230Y546735D01*
X687705Y546735D02*
X676275Y558165D01*
X670560Y558165D01*
X659130Y546735D01*
X659130Y542925D01*
X655320Y539115D01*
X655320Y520065D01*
X659130Y516255D01*
X596265Y501015D02*
X596265Y495300D01*
X577215Y476250D01*
X508635Y476250D01*
X504825Y472440D01*
X491490Y472440D01*
X474345Y455295D01*
X474345Y449580D01*
X459105Y440055D02*
X459105Y436245D01*
X451485Y428625D01*
X447675Y428625D01*
X440055Y421005D01*
X430530Y421005D01*
X220980Y222885D02*
X220980Y192405D01*
X182880Y154305D01*
X173355Y154305D01*
X161925Y165735D01*
X161925Y171450D01*
X68580Y264795D01*
X-76200Y264795D01*
X-85725Y255270D01*
X-85725Y222885D01*
X-64770Y201930D01*
X697230Y546735D02*
X698500Y546100D01*
X-63500Y203200D02*
X-64770Y201930D01*
D21*
X659130Y516255D03*
X596265Y501015D03*
X474345Y449580D03*
X459105Y440055D03*
X430530Y421005D03*
X220980Y222885D03*
D20*
X706755Y523875D02*
X723900Y523875D01*
X706755Y523875D02*
X701040Y518160D01*
X701040Y504825D01*
X693420Y497205D01*
X645795Y491490D02*
X645795Y487680D01*
X613410Y455295D01*
X600075Y455295D01*
X586740Y468630D01*
X529590Y468630D01*
X514350Y453390D01*
X512445Y453390D01*
X449580Y436245D02*
X441960Y428625D01*
X436245Y428625D01*
X270510Y333375D02*
X266700Y337185D01*
X165735Y337185D01*
X91440Y262890D01*
D21*
X723900Y523875D03*
X693420Y497205D03*
X645795Y491490D03*
X512445Y453390D03*
X449580Y436245D03*
X436245Y428625D03*
X270510Y333375D03*
X91440Y262890D03*
D20*
X749300Y546100D02*
X760095Y535305D01*
X760095Y501015D01*
X754380Y495300D01*
X701040Y342900D02*
X704850Y339090D01*
X701040Y342900D02*
X659130Y342900D01*
X641985Y325755D01*
X641985Y321945D01*
X624840Y304800D01*
X554355Y304800D01*
X546735Y297180D01*
X525780Y297180D01*
X196215Y219075D02*
X171450Y194310D01*
X161925Y194310D01*
X158115Y190500D01*
D21*
X754380Y495300D03*
X704850Y339090D03*
X525780Y297180D03*
X196215Y219075D03*
X158115Y190500D03*
D20*
X670560Y531495D02*
X752475Y531495D01*
X582930Y539115D02*
X579120Y539115D01*
X575310Y535305D01*
X569595Y535305D01*
X550545Y516255D01*
X514350Y516255D01*
X508635Y521970D01*
X504825Y521970D01*
X493395Y510540D01*
X489585Y510540D01*
X483870Y516255D01*
X483870Y575310D01*
X481965Y577215D01*
X417195Y577215D01*
X396240Y556260D01*
X396240Y527685D01*
X386715Y518160D01*
X354330Y518160D01*
X350520Y514350D01*
X308610Y514350D01*
X291465Y497205D01*
X142875Y293370D02*
X104775Y255270D01*
D21*
X752475Y531495D03*
X670560Y531495D03*
X582930Y539115D03*
X291465Y497205D03*
X142875Y293370D03*
X104775Y255270D03*
D20*
X800100Y541020D02*
X800100Y546100D01*
X800100Y541020D02*
X809625Y531495D01*
X830580Y531495D01*
X855345Y506730D01*
X855345Y497205D01*
X866775Y485775D01*
X866775Y443865D01*
X847725Y424815D01*
X828675Y424815D01*
X771525Y384810D02*
X763905Y377190D01*
X750570Y377190D01*
X744855Y371475D01*
X744855Y367665D01*
X731520Y354330D01*
X668655Y354330D01*
X651510Y371475D01*
X651510Y379095D01*
X645795Y384810D01*
X579120Y384810D01*
X573405Y390525D01*
X569595Y390525D01*
X556260Y377190D01*
X541020Y377190D01*
X533400Y369570D01*
X533400Y335280D01*
X531495Y333375D01*
X310515Y59055D02*
X238125Y131445D01*
X226695Y131445D01*
X219075Y139065D01*
X211455Y139065D01*
X165735Y93345D01*
X-55245Y93345D01*
X-63500Y101600D01*
D21*
X828675Y424815D03*
X771525Y384810D03*
X531495Y333375D03*
X310515Y59055D03*
D20*
X767715Y487680D02*
X796290Y516255D01*
X767715Y487680D02*
X742950Y487680D01*
X739140Y483870D01*
X653415Y483870D01*
X609600Y440055D01*
X493395Y440055D01*
X457200Y453390D02*
X434340Y453390D01*
X432435Y455295D01*
X407670Y455295D01*
X379095Y426720D01*
D21*
X796290Y516255D03*
X493395Y440055D03*
X457200Y453390D03*
X379095Y426720D03*
D20*
X584835Y489585D02*
X584835Y493395D01*
X584835Y489585D02*
X575310Y480060D01*
X502920Y480060D01*
X481965Y480060D02*
X464820Y497205D01*
X346710Y422910D02*
X287655Y422910D01*
D21*
X584835Y493395D03*
X502920Y480060D03*
X481965Y480060D03*
X464820Y497205D03*
X346710Y422910D03*
X287655Y422910D03*
D20*
X870585Y539115D02*
X876300Y544830D01*
X870585Y539115D02*
X870585Y499110D01*
X878205Y491490D01*
X906780Y491490D01*
X929640Y468630D01*
X942975Y468630D01*
X996315Y415290D01*
X996315Y392430D01*
X956310Y360045D02*
X952500Y360045D01*
X948690Y356235D01*
X910590Y356235D01*
X834390Y280035D01*
X824865Y280035D01*
X819150Y285750D01*
X796290Y285750D01*
X782955Y299085D01*
X641985Y299085D01*
X628650Y285750D01*
X628650Y281940D01*
X579120Y283845D02*
X577215Y281940D01*
X563880Y281940D01*
X554355Y272415D01*
X489585Y272415D01*
X466725Y270510D02*
X447675Y251460D01*
X447675Y232410D01*
X424815Y209550D01*
X411480Y209550D01*
X182880Y211455D02*
X182880Y215265D01*
X182880Y211455D02*
X169545Y198120D01*
X150495Y198120D01*
X22860Y188595D02*
X7620Y173355D01*
X876300Y544830D02*
X876300Y546100D01*
D21*
X996315Y392430D03*
X956310Y360045D03*
X628650Y281940D03*
X579120Y283845D03*
X489585Y272415D03*
X466725Y270510D03*
X411480Y209550D03*
X182880Y215265D03*
X150495Y198120D03*
X22860Y188595D03*
X7620Y173355D03*
D20*
X996315Y539115D02*
X1003300Y546100D01*
X996315Y539115D02*
X996315Y523875D01*
X828675Y312420D02*
X809625Y293370D01*
X800100Y293370D01*
X786765Y306705D01*
X638175Y306705D01*
X628650Y297180D01*
X558165Y297180D01*
X550545Y289560D01*
X537210Y289560D01*
X533400Y285750D01*
X462915Y219075D02*
X459105Y215265D01*
X459105Y186690D01*
X426720Y154305D01*
X392430Y154305D01*
X369570Y131445D01*
X369570Y51435D01*
X394335Y26670D01*
X393700Y25400D01*
D21*
X996315Y523875D03*
X828675Y312420D03*
X533400Y285750D03*
X462915Y219075D03*
D20*
X979170Y443865D02*
X979170Y544830D01*
X979170Y443865D02*
X1003935Y419100D01*
X1003935Y407670D01*
X1007745Y403860D01*
X965835Y352425D02*
X912495Y352425D01*
X840105Y280035D01*
X840105Y274320D01*
X828675Y262890D01*
X689610Y74295D02*
X693420Y70485D01*
X689610Y74295D02*
X613410Y74295D01*
X609600Y70485D01*
X979170Y544830D02*
X977900Y546100D01*
D21*
X1007745Y403860D03*
X965835Y352425D03*
X828675Y262890D03*
X693420Y70485D03*
X609600Y70485D03*
D20*
X958215Y539115D02*
X952500Y544830D01*
X958215Y539115D02*
X958215Y516255D01*
X954405Y512445D01*
X840105Y321945D02*
X809625Y321945D01*
X649605Y323850D02*
X626745Y300990D01*
X556260Y300990D01*
X548640Y293370D01*
X531495Y293370D01*
X523875Y285750D01*
X518160Y285750D01*
X462915Y243840D02*
X455295Y236220D01*
X455295Y188595D01*
X424815Y158115D01*
X390525Y158115D01*
X365760Y133350D01*
X365760Y51435D01*
X342900Y28575D01*
X342900Y25400D01*
X952500Y544830D02*
X952500Y546100D01*
D21*
X954405Y512445D03*
X840105Y321945D03*
X809625Y321945D03*
X649605Y323850D03*
X518160Y285750D03*
X462915Y243840D03*
D20*
X927735Y499110D02*
X927735Y544830D01*
X927735Y499110D02*
X941070Y485775D01*
X851535Y274320D02*
X840105Y262890D01*
X840105Y259080D01*
X832485Y251460D01*
X824865Y251460D01*
X813435Y262890D01*
X807720Y262890D01*
X779145Y291465D01*
X664845Y291465D01*
X630555Y257175D01*
X571500Y260985D02*
X563880Y260985D01*
X537210Y234315D01*
X537210Y230505D01*
X470535Y213360D02*
X466725Y209550D01*
X470535Y213360D02*
X470535Y245745D01*
X461010Y255270D01*
X457200Y255270D01*
X451485Y249555D01*
X451485Y190500D01*
X422910Y161925D01*
X388620Y161925D01*
X361950Y135255D01*
X361950Y53340D01*
X352425Y43815D01*
X333375Y43815D01*
X316230Y26670D01*
X927735Y544830D02*
X927100Y546100D01*
X317500Y25400D02*
X316230Y26670D01*
D21*
X941070Y485775D03*
X851535Y274320D03*
X630555Y257175D03*
X571500Y260985D03*
X537210Y230505D03*
X466725Y209550D03*
D20*
X575310Y278130D02*
X579120Y274320D01*
X575310Y278130D02*
X565785Y278130D01*
X558165Y270510D01*
X558165Y266700D01*
X525780Y234315D01*
X525780Y133350D01*
X521970Y129540D01*
X70485Y544830D02*
X-43815Y430530D01*
X-43815Y428625D01*
X-51435Y421005D01*
X-74295Y421005D01*
X-85725Y409575D01*
X-85725Y278130D01*
X-76200Y268605D01*
X70485Y268605D01*
X173355Y165735D01*
X177165Y165735D01*
X70485Y544830D02*
X70612Y546100D01*
X177165Y165735D02*
X177800Y165100D01*
X1546860Y581025D02*
X1581150Y546735D01*
X1546860Y581025D02*
X1211580Y581025D01*
X1186815Y556260D01*
X1042035Y281940D02*
X986790Y226695D01*
X826770Y226695D01*
X822960Y230505D01*
X691515Y230505D01*
X687705Y234315D01*
X1581150Y546735D02*
X1581912Y546100D01*
D21*
X579120Y274320D03*
X521970Y129540D03*
X1186815Y556260D03*
X1042035Y281940D03*
X687705Y234315D03*
D20*
X977265Y207645D02*
X977265Y203835D01*
X977265Y207645D02*
X962025Y222885D01*
X824865Y222885D01*
X821055Y226695D01*
X645795Y226695D01*
X596900Y177800D01*
X977265Y203835D02*
X977900Y203200D01*
X361950Y581025D02*
X354330Y573405D01*
X361950Y581025D02*
X483870Y581025D01*
X487680Y577215D01*
X487680Y550545D01*
X508635Y529590D01*
X516255Y529590D01*
X1346835Y321945D02*
X1346835Y299085D01*
X1329690Y281940D01*
X1051560Y281940D01*
X1043940Y274320D01*
X1040130Y274320D01*
X988695Y222885D01*
X962025Y222885D01*
D21*
X354330Y573405D03*
X516255Y529590D03*
X1346835Y321945D03*
D20*
X342900Y194310D02*
X342900Y190500D01*
X342900Y194310D02*
X356235Y207645D01*
X388620Y207645D01*
X405765Y190500D01*
X406400Y190500D01*
X245745Y97155D02*
X245745Y38100D01*
X245745Y97155D02*
X215900Y127000D01*
X245745Y38100D02*
X246888Y38100D01*
X279400Y127000D02*
X342900Y190500D01*
X661035Y203835D02*
X661035Y207645D01*
X676275Y222885D01*
X729615Y222885D01*
X749300Y203200D01*
X661035Y203835D02*
X660400Y203200D01*
X819150Y222885D02*
X838200Y203835D01*
X819150Y222885D02*
X729615Y222885D01*
X838200Y203835D02*
X838200Y203200D01*
X996315Y188595D02*
X1040130Y188595D01*
X996315Y188595D02*
X988695Y180975D01*
X954405Y180975D01*
X950595Y177165D01*
X552450Y194310D02*
X542925Y184785D01*
X552450Y194310D02*
X552450Y200025D01*
X569595Y217170D01*
D21*
X1040130Y188595D03*
X950595Y177165D03*
X542925Y184785D03*
X569595Y217170D03*
D20*
X529590Y232410D02*
X565785Y268605D01*
X529590Y232410D02*
X529590Y83820D01*
X523875Y78105D01*
X516255Y78105D01*
X462915Y66675D02*
X459105Y62865D01*
X430530Y62865D01*
X426720Y66675D01*
X211455Y91440D02*
X158115Y38100D01*
X157988Y38100D01*
D21*
X565785Y268605D03*
X516255Y78105D03*
X462915Y66675D03*
X426720Y66675D03*
X211455Y91440D03*
D20*
X274320Y544830D02*
X299085Y544830D01*
X325755Y518160D01*
X348615Y518160D01*
X375285Y544830D01*
X274320Y544830D02*
X273812Y546100D01*
X375285Y544830D02*
X375412Y546100D01*
X872490Y43815D02*
X872490Y38100D01*
X906780Y78105D02*
X939165Y110490D01*
X906780Y78105D02*
X872490Y43815D01*
X939165Y110490D02*
X1030605Y110490D01*
X872490Y38100D02*
X870712Y38100D01*
X129540Y289560D02*
X116205Y276225D01*
X234315Y123825D02*
X240030Y123825D01*
X274320Y89535D01*
X274320Y85725D01*
X542925Y152400D02*
X548640Y158115D01*
X569595Y158115D01*
X596265Y131445D01*
X596265Y123825D01*
X594360Y121920D01*
X594360Y102870D01*
X615315Y81915D01*
X882015Y81915D01*
X885825Y78105D01*
X906780Y78105D01*
D21*
X1030605Y110490D03*
X129540Y289560D03*
X116205Y276225D03*
X234315Y123825D03*
X274320Y85725D03*
X542925Y152400D03*
D20*
X851535Y78105D02*
X855345Y74295D01*
X851535Y78105D02*
X607695Y78105D01*
X601980Y72390D01*
X601980Y68580D01*
X607695Y62865D01*
X615315Y62865D01*
X521970Y85725D02*
X521970Y95250D01*
X508635Y108585D01*
X508635Y114300D01*
X504825Y118110D01*
X300990Y78105D02*
X297180Y78105D01*
X264795Y110490D01*
X264795Y160020D01*
X264795Y179070D02*
X264795Y207645D01*
X241935Y230505D01*
X238125Y230505D01*
X327660Y375285D02*
X331470Y375285D01*
X327660Y375285D02*
X291465Y411480D01*
X222885Y411480D01*
X131445Y502920D01*
X131445Y544830D01*
X132588Y546100D01*
D21*
X855345Y74295D03*
X615315Y62865D03*
X521970Y85725D03*
X504825Y118110D03*
X300990Y78105D03*
X264795Y160020D03*
X264795Y179070D03*
X238125Y230505D03*
X331470Y375285D03*
D20*
X902970Y560070D02*
X902970Y571500D01*
X902970Y560070D02*
X916305Y546735D01*
X916305Y541020D01*
X923925Y533400D01*
X923925Y502920D01*
X920115Y499110D01*
X904875Y472440D02*
X899160Y472440D01*
X904875Y472440D02*
X910590Y466725D01*
X910590Y445770D01*
X925830Y430530D01*
X925830Y421005D01*
X920115Y415290D01*
X916305Y415290D01*
X912495Y419100D01*
X899160Y419100D01*
X891540Y411480D01*
X832485Y411480D01*
X828675Y415290D01*
X828675Y379095D02*
X824865Y379095D01*
X822960Y377190D01*
X769620Y377190D01*
X754380Y361950D01*
X750570Y361950D01*
X735330Y346710D01*
X664845Y346710D01*
X630555Y381000D01*
X586740Y381000D01*
X582930Y377190D01*
X901700Y571500D02*
X902970Y571500D01*
D21*
X920115Y499110D03*
X899160Y472440D03*
X828675Y415290D03*
X828675Y379095D03*
X582930Y377190D03*
D20*
X331470Y388620D02*
X331470Y413385D01*
X331470Y388620D02*
X339090Y381000D01*
X485775Y259080D02*
X489585Y262890D01*
X485775Y259080D02*
X485775Y154305D01*
X512445Y127635D01*
X512445Y110490D01*
X518160Y104775D01*
X521970Y104775D01*
D21*
X331470Y413385D03*
X339090Y381000D03*
X489585Y262890D03*
X521970Y104775D03*
D20*
X552450Y501015D02*
X560070Y508635D01*
X584835Y508635D01*
X605790Y506730D02*
X605790Y516255D01*
X605790Y506730D02*
X619125Y493395D01*
X619125Y489585D01*
X622935Y485775D01*
X622935Y476250D01*
X615315Y468630D01*
X744855Y340995D02*
X744855Y314325D01*
D21*
X552450Y501015D03*
X584835Y508635D03*
X605790Y516255D03*
X615315Y468630D03*
X744855Y340995D03*
X744855Y314325D03*
D20*
X419100Y116205D02*
X419100Y59055D01*
X419100Y25400D01*
X419100Y116205D02*
X426720Y123825D01*
X426720Y135255D01*
X430530Y139065D01*
X431800Y139700D01*
X184785Y146685D02*
X177800Y139700D01*
X184785Y146685D02*
X186690Y146685D01*
X192405Y152400D01*
X215900Y152400D01*
X286512Y38100D02*
X299085Y38100D01*
X320040Y59055D01*
X320040Y110490D01*
X304800Y125730D01*
X304800Y127000D01*
X432435Y177165D02*
X432435Y190500D01*
X432435Y177165D02*
X421005Y165735D01*
X394335Y165735D01*
X369570Y190500D01*
X431800Y190500D02*
X432435Y190500D01*
X369570Y190500D02*
X368300Y190500D01*
X19050Y38100D02*
X-32385Y89535D01*
X-74295Y89535D01*
X-89535Y104775D01*
X-89535Y411480D01*
X-76200Y424815D01*
X-70485Y424815D01*
X-63500Y431800D01*
X19050Y38100D02*
X19812Y38100D01*
X1099185Y546735D02*
X1129665Y577215D01*
X1148715Y577215D01*
X1205865Y520065D01*
X1205865Y516255D01*
X1211580Y510540D01*
X1215390Y510540D01*
X1223010Y518160D01*
X1223010Y544830D01*
X1099185Y546735D02*
X1097788Y546100D01*
X1223010Y544830D02*
X1224788Y546100D01*
X1453515Y546735D02*
X1483995Y577215D01*
X1510665Y577215D01*
X1541145Y546735D01*
X1453515Y546735D02*
X1453388Y546100D01*
X1541145Y546735D02*
X1542288Y546100D01*
X1255395Y577215D02*
X1224915Y546735D01*
X1255395Y577215D02*
X1346835Y577215D01*
X1377315Y546735D01*
X1224915Y546735D02*
X1224788Y546100D01*
X1377315Y546735D02*
X1378712Y546100D01*
X571500Y83820D02*
X571500Y43815D01*
X571500Y25400D01*
X571500Y83820D02*
X590550Y102870D01*
X590550Y120015D01*
X584835Y125730D01*
X584200Y127000D01*
X866775Y200025D02*
X882015Y184785D01*
X866775Y200025D02*
X863600Y203200D01*
X882015Y184785D02*
X935355Y184785D01*
X952500Y201930D01*
X952500Y203200D01*
X702945Y184785D02*
X685800Y201930D01*
X702945Y184785D02*
X758190Y184785D01*
X773430Y200025D02*
X775335Y201930D01*
X773430Y200025D02*
X758190Y184785D01*
X685800Y201930D02*
X685800Y203200D01*
X774700Y203200D02*
X775335Y201930D01*
X758190Y314325D02*
X758190Y350520D01*
X866775Y200025D02*
X851535Y184785D01*
X817245Y184785D02*
X788670Y184785D01*
X817245Y184785D02*
X851535Y184785D01*
X788670Y184785D02*
X773430Y200025D01*
X863600Y203200D02*
X864870Y201930D01*
X774700Y203200D02*
X773430Y200025D01*
X798195Y116205D02*
X812800Y101600D01*
X798195Y116205D02*
X798195Y165735D01*
X817245Y184785D01*
X1238250Y114300D02*
X1244600Y114300D01*
X1238250Y114300D02*
X1209675Y142875D01*
X1002030Y142875D01*
X998220Y139065D01*
X735330Y43815D02*
X571500Y43815D01*
X735330Y43815D02*
X741045Y38100D01*
X742188Y38100D01*
X1562100Y405765D02*
X1565910Y405765D01*
X1586865Y384810D01*
X1586865Y102870D01*
X1571625Y87630D01*
X1550670Y87630D01*
X1527810Y64770D01*
X1562100Y405765D02*
X1562100Y406400D01*
X478155Y59055D02*
X419100Y59055D01*
D21*
X758190Y350520D03*
X758190Y314325D03*
X998220Y139065D03*
X1527810Y64770D03*
X478155Y59055D03*
D20*
X535305Y381000D02*
X546735Y392430D01*
X546735Y421005D01*
X554355Y428625D01*
X619125Y428625D01*
X634365Y413385D01*
X634365Y407670D01*
X635000Y406400D01*
X1371600Y80010D02*
X1371600Y63500D01*
X1371600Y80010D02*
X1263015Y188595D01*
X1061085Y188595D01*
X1021080Y228600D01*
X1021080Y245745D01*
X912495Y388620D02*
X908685Y392430D01*
X826770Y392430D01*
X819150Y384810D01*
X813435Y384810D01*
X802005Y396240D01*
X708660Y396240D01*
X702945Y401955D01*
X687705Y401955D01*
X661035Y428625D01*
X619125Y428625D01*
D21*
X535305Y381000D03*
X1021080Y245745D03*
X912495Y388620D03*
D20*
X621030Y354330D02*
X621030Y348615D01*
X603885Y331470D01*
X554355Y331470D01*
X544830Y321945D01*
X533400Y321945D01*
X527685Y316230D01*
X527685Y312420D01*
X474345Y287655D02*
X470535Y291465D01*
X474345Y287655D02*
X474345Y148590D01*
X432435Y106680D01*
X312420Y104775D02*
X285750Y104775D01*
X219075Y104775D02*
X182880Y104775D01*
X167640Y89535D01*
X161925Y89535D01*
X110490Y38100D01*
X621030Y354330D02*
X622300Y355600D01*
X110490Y38100D02*
X108712Y38100D01*
D21*
X527685Y312420D03*
X470535Y291465D03*
X432435Y106680D03*
X312420Y104775D03*
X285750Y104775D03*
X219075Y104775D03*
D20*
X598170Y462915D02*
X601980Y462915D01*
X598170Y462915D02*
X588645Y472440D01*
X523875Y472440D01*
X520065Y468630D01*
X403860Y396240D02*
X400050Y396240D01*
X340995Y337185D01*
X283845Y337185D01*
X198120Y251460D01*
X121920Y251460D01*
X118110Y255270D01*
X91440Y78105D02*
X91440Y59055D01*
X70485Y38100D01*
X69088Y38100D01*
D21*
X601980Y462915D03*
X520065Y468630D03*
X403860Y396240D03*
X118110Y255270D03*
X91440Y78105D03*
D20*
X483870Y407670D02*
X483870Y440055D01*
X491490Y447675D01*
X508635Y447675D01*
X512445Y443865D01*
X571500Y443865D01*
X586740Y459105D01*
X813435Y251460D02*
X830580Y234315D01*
X979170Y234315D01*
X982980Y238125D01*
X1005840Y230505D02*
X1013460Y230505D01*
X1059180Y184785D01*
X1179195Y184785D01*
X1183005Y180975D01*
X1198245Y196215D02*
X1202055Y192405D01*
X1264920Y192405D01*
X1379220Y78105D01*
X1411605Y78105D01*
X1451610Y38100D01*
X483870Y407670D02*
X482600Y406400D01*
X1451610Y38100D02*
X1453388Y38100D01*
D21*
X586740Y459105D03*
X813435Y251460D03*
X982980Y238125D03*
X1005840Y230505D03*
X1183005Y180975D03*
X1198245Y196215D03*
D20*
X470535Y356235D02*
X470535Y361950D01*
X493395Y384810D01*
X512445Y384810D01*
X520065Y392430D01*
X520065Y421005D01*
X531495Y432435D01*
X662940Y432435D01*
X689610Y405765D01*
X704850Y405765D01*
X710565Y400050D01*
X916305Y400050D01*
X944880Y371475D01*
X984885Y371475D01*
X1066800Y289560D01*
X1162050Y289560D01*
X1177290Y304800D01*
X1314450Y304800D01*
X1339215Y329565D01*
X1348740Y329565D01*
X1358265Y320040D01*
X1423035Y320040D01*
X1554480Y188595D01*
X1573530Y188595D01*
X1583055Y179070D01*
X1583055Y125730D01*
X1569720Y112395D01*
X1520190Y112395D01*
X1478280Y70485D01*
X1478280Y51435D01*
X1491615Y38100D01*
X470535Y356235D02*
X469900Y355600D01*
X1491615Y38100D02*
X1493012Y38100D01*
X824865Y457200D02*
X782955Y415290D01*
X752475Y369570D02*
X733425Y350520D01*
X666750Y350520D01*
X643890Y373380D01*
X643890Y377190D01*
X824865Y457200D02*
X825500Y457200D01*
D21*
X782955Y415290D03*
X752475Y369570D03*
X643890Y377190D03*
D20*
X840105Y466725D02*
X849630Y457200D01*
X840105Y466725D02*
X840105Y470535D01*
X826770Y483870D01*
X744855Y483870D01*
X741045Y480060D01*
X699135Y480060D01*
X683895Y464820D01*
X683895Y441960D01*
X643890Y464820D02*
X640080Y464820D01*
X611505Y436245D01*
X529590Y436245D01*
X516255Y422910D01*
X516255Y415290D01*
X508635Y407670D01*
X849630Y457200D02*
X850900Y457200D01*
X508635Y407670D02*
X508000Y406400D01*
D21*
X683895Y441960D03*
X643890Y464820D03*
D20*
X421005Y280035D02*
X407670Y266700D01*
X421005Y280035D02*
X421005Y291465D01*
X417195Y295275D01*
X542925Y222885D02*
X560070Y222885D01*
X569595Y232410D01*
X655320Y234315D02*
X670560Y234315D01*
X678180Y241935D01*
X748665Y241935D01*
X815340Y171450D02*
X815340Y167640D01*
X815340Y171450D02*
X821055Y177165D01*
X941070Y177165D01*
X967740Y150495D01*
X1162050Y150495D01*
X1196340Y184785D01*
X1215390Y184785D01*
X1230630Y169545D01*
X1230630Y165735D01*
X407670Y266700D02*
X406400Y266700D01*
X1230630Y165735D02*
X1231900Y165100D01*
D21*
X417195Y295275D03*
X542925Y222885D03*
X569595Y232410D03*
X655320Y234315D03*
X748665Y241935D03*
X815340Y167640D03*
M02*
