G04 EAGLE Gerber X2 export*
%TF.Part,Single*%
%TF.FileFunction,Copper,L1,Top,Mixed*%
%TF.FilePolarity,Positive*%
%TF.GenerationSoftware,Autodesk,EAGLE,8.7.0*%
%TF.CreationDate,2018-03-25T19:01:44Z*%
G75*
%MOMM*%
%FSLAX34Y34*%
%LPD*%
%AMOC8*
5,1,8,0,0,1.08239X$1,22.5*%
G01*
%ADD10P,1.732040X8X22.500000*%
%ADD11P,1.732040X8X112.500000*%
%ADD12P,1.732040X8X202.500000*%
%ADD13P,1.732040X8X292.500000*%
%ADD14C,1.676400*%
%ADD15C,2.514600*%
%ADD16C,1.524000*%
%ADD17P,1.632244X8X22.500000*%
%ADD18P,1.429621X8X22.500000*%
%ADD19C,1.800000*%
%ADD20C,0.228600*%
%ADD21C,0.756400*%


D10*
X406400Y190500D03*
X431800Y190500D03*
D11*
X215900Y127000D03*
X215900Y152400D03*
D10*
X406400Y139700D03*
X431800Y139700D03*
X342900Y190500D03*
X368300Y190500D03*
X279400Y190500D03*
X304800Y190500D03*
X279400Y127000D03*
X304800Y127000D03*
D12*
X596900Y177800D03*
X571500Y177800D03*
D13*
X177800Y165100D03*
X177800Y139700D03*
X812800Y127000D03*
X812800Y101600D03*
D12*
X609600Y127000D03*
X584200Y127000D03*
D14*
X1016000Y127000D03*
X914400Y127000D03*
X1295400Y266700D03*
X1193800Y266700D03*
D15*
X1339088Y533527D02*
X1339088Y558673D01*
X1378712Y558673D02*
X1378712Y533527D01*
X1150112Y50673D02*
X1150112Y25527D01*
X1110488Y25527D02*
X1110488Y50673D01*
D16*
X495300Y33020D02*
X495300Y17780D01*
X469900Y17780D02*
X469900Y33020D01*
X444500Y33020D02*
X444500Y17780D01*
X419100Y17780D02*
X419100Y33020D01*
X393700Y33020D02*
X393700Y17780D01*
X368300Y17780D02*
X368300Y33020D01*
X342900Y33020D02*
X342900Y17780D01*
X317500Y17780D02*
X317500Y33020D01*
X1554480Y25400D02*
X1569720Y25400D01*
X1569720Y50800D02*
X1554480Y50800D01*
X1554480Y76200D02*
X1569720Y76200D01*
X1569720Y101600D02*
X1554480Y101600D01*
X1554480Y127000D02*
X1569720Y127000D01*
X1569720Y152400D02*
X1554480Y152400D01*
X1554480Y177800D02*
X1569720Y177800D01*
X1569720Y203200D02*
X1554480Y203200D01*
X1554480Y228600D02*
X1569720Y228600D01*
X1569720Y254000D02*
X1554480Y254000D01*
X1554480Y279400D02*
X1569720Y279400D01*
X1569720Y304800D02*
X1554480Y304800D01*
X-55880Y25400D02*
X-71120Y25400D01*
X-71120Y50800D02*
X-55880Y50800D01*
X-55880Y76200D02*
X-71120Y76200D01*
X-71120Y101600D02*
X-55880Y101600D01*
X-55880Y127000D02*
X-71120Y127000D01*
X-71120Y152400D02*
X-55880Y152400D01*
X-55880Y177800D02*
X-71120Y177800D01*
X-71120Y203200D02*
X-55880Y203200D01*
X-55880Y228600D02*
X-71120Y228600D01*
X-71120Y254000D02*
X-55880Y254000D01*
X-55880Y279400D02*
X-71120Y279400D01*
X-71120Y304800D02*
X-55880Y304800D01*
X-55880Y508000D02*
X-71120Y508000D01*
X-71120Y482600D02*
X-55880Y482600D01*
X-55880Y457200D02*
X-71120Y457200D01*
X-71120Y431800D02*
X-55880Y431800D01*
X-55880Y406400D02*
X-71120Y406400D01*
X-71120Y381000D02*
X-55880Y381000D01*
X-55880Y355600D02*
X-71120Y355600D01*
X-71120Y330200D02*
X-55880Y330200D01*
X1554480Y330200D02*
X1569720Y330200D01*
X1569720Y355600D02*
X1554480Y355600D01*
X1554480Y381000D02*
X1569720Y381000D01*
X1569720Y406400D02*
X1554480Y406400D01*
X1554480Y431800D02*
X1569720Y431800D01*
X1569720Y457200D02*
X1554480Y457200D01*
X1554480Y482600D02*
X1569720Y482600D01*
X1569720Y508000D02*
X1554480Y508000D01*
D15*
X1061212Y50673D02*
X1061212Y25527D01*
X1021588Y25527D02*
X1021588Y50673D01*
D16*
X673100Y449580D02*
X673100Y464820D01*
X698500Y464820D02*
X698500Y449580D01*
X723900Y449580D02*
X723900Y464820D01*
X749300Y464820D02*
X749300Y449580D01*
X774700Y449580D02*
X774700Y464820D01*
X800100Y464820D02*
X800100Y449580D01*
X825500Y449580D02*
X825500Y464820D01*
X850900Y464820D02*
X850900Y449580D01*
D17*
X520700Y546100D03*
X520700Y571500D03*
X546100Y546100D03*
X546100Y571500D03*
X571500Y546100D03*
X571500Y571500D03*
X596900Y546100D03*
X596900Y571500D03*
X622300Y546100D03*
X622300Y571500D03*
X647700Y546100D03*
X647700Y571500D03*
X673100Y546100D03*
X673100Y571500D03*
X698500Y546100D03*
X698500Y571500D03*
X723900Y546100D03*
X723900Y571500D03*
X749300Y546100D03*
X749300Y571500D03*
X774700Y546100D03*
X774700Y571500D03*
X800100Y546100D03*
X800100Y571500D03*
X825500Y546100D03*
X825500Y571500D03*
X850900Y546100D03*
X850900Y571500D03*
X876300Y546100D03*
X876300Y571500D03*
X901700Y546100D03*
X901700Y571500D03*
X927100Y546100D03*
X927100Y571500D03*
X952500Y546100D03*
X952500Y571500D03*
X977900Y546100D03*
X977900Y571500D03*
X1003300Y546100D03*
X1003300Y571500D03*
D16*
X520700Y33020D02*
X520700Y17780D01*
X546100Y17780D02*
X546100Y33020D01*
X571500Y33020D02*
X571500Y17780D01*
X596900Y17780D02*
X596900Y33020D01*
X622300Y33020D02*
X622300Y17780D01*
X647700Y17780D02*
X647700Y33020D01*
X673100Y33020D02*
X673100Y17780D01*
X698500Y17780D02*
X698500Y33020D01*
D18*
X1371600Y292100D03*
X1498600Y292100D03*
X1244600Y114300D03*
X1371600Y114300D03*
D16*
X660400Y195580D02*
X660400Y210820D01*
X685800Y210820D02*
X685800Y195580D01*
X711200Y195580D02*
X711200Y210820D01*
X927100Y210820D02*
X927100Y195580D01*
X952500Y195580D02*
X952500Y210820D01*
X977900Y210820D02*
X977900Y195580D01*
X838200Y195580D02*
X838200Y210820D01*
X863600Y210820D02*
X863600Y195580D01*
X889000Y195580D02*
X889000Y210820D01*
X749300Y210820D02*
X749300Y195580D01*
X774700Y195580D02*
X774700Y210820D01*
X800100Y210820D02*
X800100Y195580D01*
X1206500Y172720D02*
X1206500Y157480D01*
X1231900Y157480D02*
X1231900Y172720D01*
X1257300Y172720D02*
X1257300Y157480D01*
D15*
X1581912Y533527D02*
X1581912Y558673D01*
X1542288Y558673D02*
X1542288Y533527D01*
X70612Y533527D02*
X70612Y558673D01*
X30988Y558673D02*
X30988Y533527D01*
X1493012Y533527D02*
X1493012Y558673D01*
X1453388Y558673D02*
X1453388Y533527D01*
X-30988Y533527D02*
X-30988Y558673D01*
X-70612Y558673D02*
X-70612Y533527D01*
X132588Y533527D02*
X132588Y558673D01*
X172212Y558673D02*
X172212Y533527D01*
X464312Y533527D02*
X464312Y558673D01*
X424688Y558673D02*
X424688Y533527D01*
X781812Y50673D02*
X781812Y25527D01*
X742188Y25527D02*
X742188Y50673D01*
X1137412Y533527D02*
X1137412Y558673D01*
X1097788Y558673D02*
X1097788Y533527D01*
X1264412Y533527D02*
X1264412Y558673D01*
X1224788Y558673D02*
X1224788Y533527D01*
X870712Y50673D02*
X870712Y25527D01*
X831088Y25527D02*
X831088Y50673D01*
X375412Y533527D02*
X375412Y558673D01*
X335788Y558673D02*
X335788Y533527D01*
X273812Y533527D02*
X273812Y558673D01*
X234188Y558673D02*
X234188Y533527D01*
D19*
X546100Y364600D02*
X546100Y346600D01*
X533400Y397400D02*
X533400Y415400D01*
X520700Y364600D02*
X520700Y346600D01*
X508000Y397400D02*
X508000Y415400D01*
X495300Y364600D02*
X495300Y346600D01*
X482600Y397400D02*
X482600Y415400D01*
X558800Y415400D02*
X558800Y397400D01*
X571500Y364600D02*
X571500Y346600D01*
X584200Y397400D02*
X584200Y415400D01*
X596900Y364600D02*
X596900Y346600D01*
X609600Y397400D02*
X609600Y415400D01*
X469900Y364600D02*
X469900Y346600D01*
X457200Y397400D02*
X457200Y415400D01*
X622300Y364600D02*
X622300Y346600D01*
X635000Y397400D02*
X635000Y415400D01*
D18*
X1244600Y63500D03*
X1371600Y63500D03*
X1244600Y25400D03*
X1371600Y25400D03*
D15*
X108712Y25527D02*
X108712Y50673D01*
X69088Y50673D02*
X69088Y25527D01*
X1453388Y25527D02*
X1453388Y50673D01*
X1493012Y50673D02*
X1493012Y25527D01*
D13*
X406400Y266700D03*
X406400Y241300D03*
D15*
X19812Y50673D02*
X19812Y25527D01*
X-19812Y25527D02*
X-19812Y50673D01*
X197612Y50673D02*
X197612Y25527D01*
X157988Y25527D02*
X157988Y50673D01*
X286512Y50673D02*
X286512Y25527D01*
X246888Y25527D02*
X246888Y50673D01*
D20*
X563880Y72390D02*
X565785Y70485D01*
X600075Y70485D01*
X617220Y87630D01*
X617220Y89535D01*
X779145Y95250D02*
X811530Y127635D01*
X812800Y127000D01*
X889635Y203835D02*
X899160Y203835D01*
X918210Y222885D01*
X986790Y222885D01*
X992505Y217170D01*
X889635Y203835D02*
X889000Y203200D01*
X461010Y462915D02*
X457200Y462915D01*
X441960Y447675D01*
X441960Y432435D01*
X443865Y430530D01*
X443865Y424815D01*
X428625Y409575D01*
X436245Y238125D02*
X428625Y230505D01*
X426720Y230505D01*
X421005Y224790D01*
X421005Y217170D01*
X443865Y194310D01*
X443865Y182880D01*
X441960Y180975D01*
X441960Y173355D01*
X466725Y148590D01*
X466725Y131445D01*
X455295Y72390D02*
X455295Y57150D01*
X468630Y43815D01*
X472440Y43815D01*
X476250Y47625D01*
X525780Y47625D01*
X546735Y26670D01*
X546100Y25400D01*
D21*
X563880Y72390D03*
X617220Y89535D03*
X779145Y95250D03*
X992505Y217170D03*
X461010Y462915D03*
X428625Y409575D03*
X436245Y238125D03*
X466725Y131445D03*
X455295Y72390D03*
D20*
X1017270Y95250D02*
X1017270Y125730D01*
X1017270Y95250D02*
X1022985Y89535D01*
X1022985Y38100D01*
X1017270Y125730D02*
X1016000Y127000D01*
X1021588Y38100D02*
X1022985Y38100D01*
X653415Y445770D02*
X615315Y483870D01*
X653415Y445770D02*
X653415Y440055D01*
X661035Y432435D01*
X689610Y432435D01*
X723900Y424815D02*
X741045Y407670D01*
X741045Y379095D01*
X737235Y375285D01*
X737235Y363855D01*
X748665Y352425D01*
X748665Y350520D01*
X689610Y314325D02*
X659130Y283845D01*
X636270Y283845D01*
X630555Y289560D01*
X617220Y289560D01*
D21*
X615315Y483870D03*
X689610Y432435D03*
X723900Y424815D03*
X748665Y350520D03*
X689610Y314325D03*
X617220Y289560D03*
D20*
X491490Y514350D02*
X491490Y518160D01*
X491490Y514350D02*
X432435Y455295D01*
X424815Y455295D01*
X415290Y445770D01*
X415290Y441960D01*
X405765Y422910D02*
X419100Y409575D01*
X428625Y222885D02*
X447675Y203835D01*
X447675Y180975D01*
X445770Y179070D01*
X445770Y175260D01*
X480060Y140970D01*
X489585Y140970D01*
D21*
X491490Y518160D03*
X415290Y441960D03*
X405765Y422910D03*
X419100Y409575D03*
X428625Y222885D03*
X489585Y140970D03*
D20*
X630555Y508635D02*
X634365Y508635D01*
X641985Y501015D01*
X681990Y501015D01*
X683895Y502920D01*
X689610Y502920D01*
X691515Y504825D01*
X800100Y504825D01*
X836295Y468630D01*
X836295Y339090D01*
X826770Y329565D01*
X821055Y329565D01*
X802005Y310515D02*
X798195Y306705D01*
X798195Y304800D01*
X775335Y281940D01*
X775335Y278130D01*
X560070Y169545D02*
X554355Y163830D01*
X554355Y146685D01*
X502920Y95250D01*
X502920Y89535D01*
X502920Y43815D02*
X506730Y40005D01*
X502920Y43815D02*
X478155Y43815D01*
X470535Y36195D01*
X470535Y26670D01*
X469900Y25400D01*
D21*
X630555Y508635D03*
X821055Y329565D03*
X802005Y310515D03*
X775335Y278130D03*
X560070Y169545D03*
X502920Y89535D03*
X506730Y40005D03*
D20*
X379095Y392430D02*
X382905Y396240D01*
X379095Y392430D02*
X379095Y379095D01*
X400050Y358140D01*
X441960Y358140D01*
X461010Y377190D01*
X478155Y377190D01*
X495300Y360045D01*
X495300Y355600D01*
X1213485Y518160D02*
X1274445Y518160D01*
X1333500Y577215D01*
X1499235Y577215D01*
X1522095Y554355D01*
X1522095Y422910D01*
X1552575Y392430D01*
X1573530Y392430D01*
X1583055Y382905D01*
X1583055Y348615D01*
X1565910Y331470D01*
X1562100Y331470D01*
X1562100Y330200D01*
X512445Y377190D02*
X495300Y360045D01*
X512445Y377190D02*
X525780Y377190D01*
X533400Y369570D01*
X533400Y340995D01*
X550545Y323850D01*
X550545Y257175D01*
X554355Y253365D01*
X554355Y186690D01*
X558165Y182880D01*
X984885Y361950D02*
X984885Y365760D01*
X1015365Y396240D01*
X1019175Y396240D01*
X1032510Y409575D01*
X1032510Y411480D01*
X495300Y356235D02*
X495300Y355600D01*
D21*
X382905Y396240D03*
X1213485Y518160D03*
X558165Y182880D03*
X984885Y361950D03*
X1032510Y411480D03*
D20*
X546735Y520065D02*
X546735Y544830D01*
X546735Y520065D02*
X556260Y510540D01*
X556260Y506730D01*
X577215Y485775D01*
X607695Y485775D01*
X613410Y491490D01*
X626745Y491490D01*
X634365Y483870D01*
X638175Y483870D01*
X649605Y472440D01*
X657225Y472440D01*
X672465Y457200D01*
X546735Y544830D02*
X546100Y546100D01*
X672465Y457200D02*
X673100Y457200D01*
X1463040Y327660D02*
X1498600Y292100D01*
X1463040Y327660D02*
X1381125Y327660D01*
X1377315Y323850D01*
X1363980Y323850D01*
X1335405Y295275D01*
X1335405Y287655D01*
X1327785Y280035D02*
X1314450Y266700D01*
X1327785Y280035D02*
X1335405Y287655D01*
X1314450Y266700D02*
X1295400Y266700D01*
X1257300Y228600D02*
X1257300Y165100D01*
X1257300Y228600D02*
X1295400Y266700D01*
X1339215Y310515D02*
X1339215Y544830D01*
X1339215Y310515D02*
X1320165Y291465D01*
X1320165Y287655D01*
X1327785Y280035D01*
X1339215Y544830D02*
X1339088Y546100D01*
X533400Y51435D02*
X470535Y51435D01*
X582930Y108585D02*
X594360Y108585D01*
X609600Y123825D01*
X609600Y127000D01*
X716280Y449580D02*
X723900Y457200D01*
X716280Y449580D02*
X716280Y409575D01*
X689610Y382905D01*
X670560Y363855D02*
X643890Y363855D01*
X630555Y377190D01*
X617220Y377190D01*
X609600Y369570D01*
X609600Y340995D01*
X601980Y333375D01*
X596265Y333375D01*
X565785Y302895D01*
X565785Y278130D01*
X577215Y266700D01*
X581025Y266700D01*
X584835Y270510D01*
X622935Y270510D01*
X628650Y264795D01*
X634365Y264795D01*
X670560Y228600D01*
X670560Y215265D01*
X672465Y213360D01*
X672465Y192405D01*
X609600Y129540D01*
X609600Y127000D01*
D21*
X470535Y51435D03*
X533400Y51435D03*
X582930Y108585D03*
X689610Y382905D03*
X670560Y363855D03*
D20*
X72390Y321945D02*
X-62865Y457200D01*
X-63500Y457200D01*
X800100Y203835D02*
X817245Y220980D01*
X817245Y234315D01*
X813435Y238125D01*
X1327785Y289560D02*
X1327785Y293370D01*
X1362075Y327660D01*
X1375410Y327660D01*
X1379220Y331470D01*
X1508760Y331470D01*
X1558290Y381000D01*
X1562100Y381000D01*
X800100Y203835D02*
X800100Y203200D01*
X280035Y194310D02*
X280035Y190500D01*
X280035Y194310D02*
X291465Y205740D01*
X381000Y205740D01*
X390525Y196215D01*
X390525Y125730D01*
X392430Y123825D01*
X413385Y123825D01*
X417195Y120015D01*
X483870Y120015D01*
X520065Y156210D01*
X537210Y156210D01*
X542925Y161925D01*
X781050Y180975D02*
X800100Y200025D01*
X800100Y203200D01*
X280035Y190500D02*
X279400Y190500D01*
D21*
X72390Y321945D03*
X813435Y238125D03*
X1327785Y289560D03*
X542925Y161925D03*
X781050Y180975D03*
D20*
X440055Y354330D02*
X342900Y354330D01*
X440055Y354330D02*
X461010Y333375D01*
X504825Y333375D01*
X512445Y340995D02*
X520065Y348615D01*
X512445Y340995D02*
X504825Y333375D01*
X520065Y348615D02*
X520065Y354330D01*
X520700Y355600D01*
X512445Y340995D02*
X539115Y314325D01*
X619125Y327660D02*
X655320Y291465D01*
X977265Y344805D02*
X992505Y360045D01*
X992505Y367665D01*
X1017270Y392430D01*
X1021080Y392430D01*
X1032510Y403860D01*
X1038225Y403860D01*
D21*
X342900Y354330D03*
X539115Y314325D03*
X619125Y327660D03*
X655320Y291465D03*
X977265Y344805D03*
X1038225Y403860D03*
D20*
X954405Y502920D02*
X946785Y502920D01*
X916305Y472440D01*
X916305Y468630D01*
X904875Y457200D01*
X891540Y457200D01*
X851535Y417195D01*
X851535Y388620D01*
X855345Y384810D01*
X689610Y392430D02*
X685800Y392430D01*
X683895Y390525D01*
X678180Y390525D01*
X674370Y394335D01*
X674370Y421005D01*
X666750Y428625D01*
X659130Y428625D01*
X649605Y438150D01*
X649605Y443865D01*
X617220Y476250D01*
X594360Y476250D01*
X579120Y461010D01*
X579120Y434340D01*
X567690Y422910D01*
X567690Y415290D01*
X558800Y406400D01*
D21*
X954405Y502920D03*
X855345Y384810D03*
X689610Y392430D03*
D20*
X582930Y546735D02*
X571500Y546735D01*
X582930Y546735D02*
X594360Y558165D01*
X600075Y558165D01*
X601980Y556260D01*
X617220Y556260D01*
X619125Y558165D01*
X624840Y558165D01*
X626745Y556260D01*
X641985Y556260D01*
X643890Y558165D01*
X651510Y558165D01*
X653415Y556260D01*
X668655Y556260D01*
X670560Y558165D01*
X676275Y558165D01*
X687705Y546735D01*
X687705Y541020D01*
X708660Y520065D01*
X708660Y516255D01*
X704850Y491490D02*
X704850Y462915D01*
X699135Y457200D01*
X571500Y546100D02*
X571500Y546735D01*
X698500Y457200D02*
X699135Y457200D01*
D21*
X708660Y516255D03*
X704850Y491490D03*
D20*
X916305Y531495D02*
X1038225Y531495D01*
X1093470Y476250D01*
X1093470Y358140D01*
X1089660Y354330D01*
X1535430Y302895D02*
X1558290Y280035D01*
X1562100Y280035D01*
X1562100Y279400D01*
D21*
X916305Y531495D03*
X1089660Y354330D03*
X1535430Y302895D03*
D20*
X864870Y516255D02*
X859155Y521970D01*
X864870Y516255D02*
X882015Y516255D01*
X885825Y520065D01*
X893445Y520065D01*
D21*
X859155Y521970D03*
X893445Y520065D03*
D20*
X1114425Y297180D02*
X1173480Y238125D01*
X1173480Y169545D01*
X1196340Y146685D01*
X1242060Y146685D01*
X1278255Y110490D01*
X1350645Y110490D01*
X1360170Y100965D01*
X1457325Y100965D01*
X1558290Y201930D01*
X1562100Y201930D01*
X1562100Y203200D01*
D21*
X1114425Y297180D03*
D20*
X840105Y512445D02*
X838200Y514350D01*
X840105Y512445D02*
X887730Y512445D01*
X931545Y476250D02*
X931545Y440055D01*
X1099185Y300990D02*
X1125855Y274320D01*
D21*
X838200Y514350D03*
X887730Y512445D03*
X931545Y476250D03*
X931545Y440055D03*
X1099185Y300990D03*
X1125855Y274320D03*
D20*
X862965Y478155D02*
X851535Y478155D01*
X862965Y478155D02*
X876300Y464820D01*
X918210Y422910D02*
X925830Y415290D01*
X933450Y415290D01*
X937260Y419100D01*
X1034415Y419100D01*
X1085850Y367665D01*
X1194435Y320040D02*
X1243965Y270510D01*
D21*
X851535Y478155D03*
X876300Y464820D03*
X918210Y422910D03*
X1085850Y367665D03*
X1194435Y320040D03*
X1243965Y270510D03*
D20*
X714375Y552450D02*
X714375Y556260D01*
X714375Y552450D02*
X712470Y550545D01*
X712470Y542925D01*
X714375Y541020D01*
X714375Y520065D01*
X718185Y516255D01*
X718185Y491490D02*
X708660Y481965D01*
X708660Y470535D01*
X712470Y466725D01*
X712470Y421005D01*
X708660Y417195D01*
X918210Y407670D02*
X937260Y407670D01*
X941070Y411480D01*
X965835Y411480D01*
X969645Y407670D01*
X1531620Y321945D02*
X1539240Y314325D01*
X1548765Y314325D01*
X1550670Y316230D01*
X1573530Y316230D01*
X1583055Y306705D01*
X1583055Y144780D01*
X1565910Y127635D01*
X1562100Y127635D01*
X1562100Y127000D01*
D21*
X714375Y556260D03*
X718185Y516255D03*
X718185Y491490D03*
X708660Y417195D03*
X918210Y407670D03*
X969645Y407670D03*
X1531620Y321945D03*
D20*
X708660Y571500D02*
X698500Y571500D01*
X708660Y571500D02*
X721995Y558165D01*
X727710Y558165D01*
X729615Y556260D01*
X744855Y556260D01*
X746760Y558165D01*
X752475Y558165D01*
X754380Y556260D01*
X769620Y556260D01*
X771525Y558165D01*
X777240Y558165D01*
X779145Y556260D01*
X794385Y556260D01*
X796290Y558165D01*
X803910Y558165D01*
X805815Y556260D01*
X821055Y556260D01*
X822960Y558165D01*
X828675Y558165D01*
X830580Y556260D01*
X845820Y556260D01*
X847725Y558165D01*
X853440Y558165D01*
X855345Y556260D01*
X870585Y556260D01*
X872490Y558165D01*
X880110Y558165D01*
X882015Y556260D01*
X897255Y556260D01*
X899160Y558165D01*
X904875Y558165D01*
X906780Y556260D01*
X922020Y556260D01*
X925830Y560070D01*
X931545Y560070D01*
X933450Y561975D01*
X946785Y561975D01*
X950595Y558165D01*
X956310Y558165D01*
X958215Y556260D01*
X973455Y556260D01*
X975360Y558165D01*
X981075Y558165D01*
X982980Y556260D01*
X998220Y556260D01*
X1002030Y560070D01*
X1007745Y560070D01*
X1028700Y581025D01*
X1544955Y581025D01*
X1562100Y563880D01*
X1562100Y527685D01*
X1565910Y523875D01*
X1569720Y523875D01*
X1586865Y506730D01*
X1586865Y123825D01*
X1565910Y102870D01*
X1562100Y102870D01*
X1562100Y101600D01*
X758190Y516255D02*
X735330Y539115D01*
X758190Y516255D02*
X767715Y516255D01*
X763905Y495300D02*
X763905Y445770D01*
X817245Y392430D01*
X923925Y367665D02*
X927735Y367665D01*
X1021080Y274320D01*
X1021080Y255270D01*
X1013460Y247650D01*
X1013460Y220980D01*
X1068705Y165735D02*
X1171575Y165735D01*
X1194435Y142875D01*
X1240155Y142875D01*
X1276350Y106680D01*
X1348740Y106680D01*
X1358265Y97155D01*
X1478280Y97155D01*
X1499235Y76200D01*
X1562100Y76200D01*
D21*
X735330Y539115D03*
X767715Y516255D03*
X763905Y495300D03*
X817245Y392430D03*
X923925Y367665D03*
X1013460Y220980D03*
X1068705Y165735D03*
D20*
X651510Y476250D02*
X636270Y491490D01*
X651510Y476250D02*
X662940Y476250D01*
X902970Y407670D02*
X920115Y390525D01*
X920115Y386715D01*
X1028700Y278130D01*
X1028700Y123825D01*
X1021080Y116205D01*
X1021080Y97155D01*
X1026795Y91440D01*
X1026795Y72390D01*
X1040130Y59055D01*
X1047750Y59055D01*
X1055370Y66675D01*
X1093470Y66675D01*
X1097280Y70485D01*
X1175385Y70485D01*
X1232535Y127635D01*
X1249680Y127635D01*
X1274445Y102870D01*
X1346835Y102870D01*
X1356360Y93345D01*
X1476375Y93345D01*
X1497330Y72390D01*
X1537335Y72390D01*
X1558290Y51435D01*
X1562100Y51435D01*
X1562100Y50800D01*
D21*
X636270Y491490D03*
X662940Y476250D03*
X902970Y407670D03*
D20*
X571500Y561975D02*
X571500Y571500D01*
X571500Y561975D02*
X560070Y550545D01*
X560070Y542925D01*
X571500Y531495D01*
X571500Y501015D01*
X491490Y74295D02*
X487680Y70485D01*
X491490Y74295D02*
X506730Y74295D01*
X510540Y70485D01*
X537210Y70485D02*
X544830Y70485D01*
X558165Y57150D01*
X569595Y57150D01*
X571500Y59055D01*
X609600Y59055D01*
X615315Y53340D01*
X868680Y70485D02*
X868680Y74295D01*
X883920Y89535D01*
X1000125Y89535D01*
X1346835Y87630D02*
X1350645Y87630D01*
X1352550Y85725D01*
X1472565Y85725D01*
X1485900Y72390D01*
X1485900Y68580D01*
D21*
X571500Y501015D03*
X487680Y70485D03*
X510540Y70485D03*
X537210Y70485D03*
X615315Y53340D03*
X868680Y70485D03*
X1000125Y89535D03*
X1346835Y87630D03*
X1485900Y68580D03*
D20*
X937260Y550545D02*
X937260Y554355D01*
X937260Y550545D02*
X941070Y546735D01*
X941070Y542925D01*
X948690Y535305D01*
X1040130Y535305D01*
X1097280Y478155D01*
X1097280Y352425D01*
X1089660Y344805D01*
X1085850Y344805D01*
X1520190Y308610D02*
X1531620Y308610D01*
X1533525Y310515D01*
X1556385Y310515D01*
X1562100Y304800D01*
D21*
X937260Y554355D03*
X1085850Y344805D03*
X1520190Y308610D03*
D20*
X520065Y544830D02*
X508635Y544830D01*
X489585Y525780D01*
X487680Y525780D01*
X474345Y512445D01*
X432435Y512445D01*
X390525Y470535D01*
X390525Y462915D01*
X369570Y441960D01*
X363855Y441960D01*
X352425Y430530D01*
X344805Y430530D01*
X339090Y424815D01*
X339090Y411480D01*
X209550Y281940D01*
X127635Y281940D01*
X120015Y289560D01*
X95250Y289560D01*
X83820Y278130D01*
X-32385Y278130D01*
X-59055Y304800D01*
X-63500Y304800D01*
X520065Y544830D02*
X520700Y546100D01*
X621030Y544830D02*
X621030Y541020D01*
X611505Y531495D01*
X590550Y531495D01*
X504825Y512445D02*
X501015Y508635D01*
X491490Y508635D01*
X430530Y447675D01*
X621030Y544830D02*
X622300Y546100D01*
D21*
X590550Y531495D03*
X504825Y512445D03*
X430530Y447675D03*
D20*
X582930Y440055D02*
X594360Y451485D01*
X582930Y440055D02*
X582930Y432435D01*
X571500Y421005D01*
X571500Y382905D01*
X489585Y116205D02*
X485775Y112395D01*
X474345Y112395D01*
X461010Y99060D01*
X432435Y99060D01*
X415290Y81915D01*
X325755Y81915D01*
X295275Y112395D01*
X207645Y112395D01*
X200025Y120015D01*
X200025Y144780D01*
X196215Y148590D01*
X196215Y186690D01*
X112395Y270510D01*
X-43815Y270510D01*
X-49530Y264795D01*
X-53340Y264795D01*
X-62865Y255270D01*
X-63500Y254000D01*
D21*
X594360Y451485D03*
X571500Y382905D03*
X489585Y116205D03*
D20*
X662940Y535305D02*
X672465Y544830D01*
X662940Y535305D02*
X662940Y533400D01*
X657225Y527685D01*
X596265Y527685D01*
X590550Y521970D01*
X504825Y502920D02*
X502920Y504825D01*
X493395Y504825D01*
X438150Y449580D01*
X438150Y443865D01*
X432435Y438150D01*
X672465Y544830D02*
X673100Y546100D01*
D21*
X590550Y521970D03*
X504825Y502920D03*
X432435Y438150D03*
D20*
X655320Y520065D02*
X659130Y516255D01*
X655320Y520065D02*
X619125Y520065D01*
X600075Y501015D01*
X596265Y501015D01*
X474345Y449580D02*
X468630Y449580D01*
X459105Y440055D01*
X430530Y422910D02*
X430530Y421005D01*
X430530Y422910D02*
X422910Y430530D01*
X392430Y430530D01*
X371475Y409575D01*
X354330Y409575D01*
X281940Y337185D01*
X281940Y329565D01*
X262890Y310515D01*
X255270Y310515D01*
X238125Y293370D01*
X238125Y240030D01*
X220980Y222885D01*
D21*
X659130Y516255D03*
X596265Y501015D03*
X474345Y449580D03*
X459105Y440055D03*
X430530Y421005D03*
X220980Y222885D03*
D20*
X723900Y523875D02*
X723900Y546100D01*
X691515Y499110D02*
X693420Y497205D01*
X691515Y499110D02*
X685800Y499110D01*
X683895Y497205D01*
X651510Y497205D01*
X645795Y491490D01*
X512445Y453390D02*
X512445Y449580D01*
X495300Y432435D01*
X453390Y432435D01*
X449580Y436245D01*
X436245Y428625D02*
X430530Y428625D01*
X424815Y434340D01*
X367665Y434340D01*
X270510Y337185D01*
X270510Y333375D01*
X91440Y262890D02*
X87630Y259080D01*
X66675Y259080D01*
X-15240Y177165D01*
X-62865Y177165D01*
X-63500Y177800D01*
D21*
X723900Y523875D03*
X693420Y497205D03*
X645795Y491490D03*
X512445Y453390D03*
X449580Y436245D03*
X436245Y428625D03*
X270510Y333375D03*
X91440Y262890D03*
D20*
X754380Y495300D02*
X760095Y489585D01*
X760095Y419100D01*
X752475Y411480D01*
X752475Y407670D01*
X748665Y403860D01*
X748665Y375285D01*
X744855Y371475D01*
X744855Y367665D01*
X750570Y361950D01*
X756285Y361950D01*
X765810Y352425D01*
X765810Y348615D01*
X750570Y333375D01*
X739140Y333375D01*
X737235Y331470D01*
X708660Y331470D01*
X704850Y335280D01*
X704850Y339090D01*
X525780Y297180D02*
X525780Y283845D01*
X478155Y236220D01*
X447675Y236220D01*
X438150Y245745D01*
X417195Y245745D01*
X409575Y253365D01*
X401955Y253365D01*
X361950Y213360D01*
X251460Y213360D01*
X249555Y215265D01*
X200025Y215265D01*
X196215Y219075D01*
X158115Y190500D02*
X148590Y190500D01*
X139065Y180975D01*
X5715Y180975D01*
X-40005Y135255D01*
X-40005Y127635D01*
X-51435Y116205D01*
X-76200Y116205D01*
X-81915Y121920D01*
X-81915Y137160D01*
X-66675Y152400D01*
X-63500Y152400D01*
D21*
X754380Y495300D03*
X704850Y339090D03*
X525780Y297180D03*
X196215Y219075D03*
X158115Y190500D03*
D20*
X760095Y531495D02*
X774700Y546100D01*
X760095Y531495D02*
X752475Y531495D01*
X670560Y531495D02*
X666750Y531495D01*
X659130Y523875D01*
X601980Y523875D01*
X592455Y514350D01*
X588645Y514350D01*
X581025Y521970D01*
X581025Y537210D01*
X582930Y539115D01*
X295275Y493395D02*
X291465Y497205D01*
X295275Y493395D02*
X295275Y379095D01*
X205740Y289560D01*
X146685Y289560D01*
X142875Y293370D01*
X104775Y255270D02*
X68580Y255270D01*
X-13335Y173355D01*
X-13335Y167640D01*
X-53340Y127635D01*
X-62865Y127635D01*
X-63500Y127000D01*
D21*
X752475Y531495D03*
X670560Y531495D03*
X582930Y539115D03*
X291465Y497205D03*
X142875Y293370D03*
X104775Y255270D03*
D20*
X821055Y417195D02*
X828675Y424815D01*
X821055Y417195D02*
X821055Y398145D01*
X824865Y394335D01*
X824865Y390525D01*
X819150Y384810D01*
X771525Y384810D01*
X535305Y333375D02*
X531495Y333375D01*
X535305Y333375D02*
X546735Y321945D01*
X546735Y255270D01*
X550545Y251460D01*
X550545Y148590D01*
X499110Y97155D01*
X481965Y97155D01*
X468630Y83820D01*
X440055Y83820D01*
X434340Y78105D01*
X434340Y64770D01*
X428625Y59055D01*
X310515Y59055D01*
D21*
X828675Y424815D03*
X771525Y384810D03*
X531495Y333375D03*
X310515Y59055D03*
D20*
X796290Y516255D02*
X824865Y544830D01*
X493395Y440055D02*
X476250Y457200D01*
X464820Y457200D01*
X461010Y453390D01*
X457200Y453390D01*
X379095Y426720D02*
X379095Y422910D01*
X369570Y413385D01*
X352425Y413385D01*
X278130Y339090D01*
X278130Y331470D01*
X260985Y314325D01*
X247650Y314325D01*
X211455Y278130D01*
X125730Y278130D01*
X118110Y285750D01*
X97155Y285750D01*
X85725Y274320D01*
X-45720Y274320D01*
X-51435Y268605D01*
X-76200Y268605D01*
X-85725Y259080D01*
X-85725Y95250D01*
X-66675Y76200D01*
X-63500Y76200D01*
X824865Y544830D02*
X825500Y546100D01*
D21*
X796290Y516255D03*
X493395Y440055D03*
X457200Y453390D03*
X379095Y426720D03*
D20*
X813435Y508635D02*
X850900Y546100D01*
X813435Y508635D02*
X689610Y508635D01*
X687705Y506730D01*
X681990Y506730D01*
X680085Y504825D01*
X643890Y504825D01*
X632460Y516255D01*
X621030Y516255D01*
X598170Y493395D01*
X584835Y493395D01*
X502920Y480060D02*
X481965Y480060D01*
X464820Y493395D02*
X464820Y497205D01*
X464820Y493395D02*
X430530Y459105D01*
X422910Y459105D01*
X401955Y438150D01*
X365760Y438150D01*
X350520Y422910D01*
X346710Y422910D01*
X291465Y419100D02*
X287655Y422910D01*
X291465Y419100D02*
X291465Y381000D01*
X203835Y293370D01*
X152400Y293370D01*
X144780Y300990D01*
X100965Y300990D01*
X81915Y281940D01*
X-30480Y281940D01*
X-43815Y295275D01*
X-43815Y308610D01*
X-51435Y316230D01*
X-74295Y316230D01*
X-89535Y300990D01*
X-89535Y74295D01*
X-64770Y49530D01*
X-63500Y50800D01*
D21*
X584835Y493395D03*
X502920Y480060D03*
X481965Y480060D03*
X464820Y497205D03*
X346710Y422910D03*
X287655Y422910D03*
D20*
X996315Y392430D02*
X996315Y388620D01*
X967740Y360045D01*
X956310Y360045D01*
X628650Y281940D02*
X624840Y278130D01*
X584835Y278130D01*
X579120Y283845D01*
X489585Y272415D02*
X483870Y266700D01*
X470535Y266700D01*
X466725Y270510D01*
X411480Y209550D02*
X249555Y209550D01*
X247650Y211455D01*
X186690Y211455D01*
X182880Y215265D01*
X150495Y198120D02*
X137160Y184785D01*
X26670Y184785D01*
X22860Y188595D01*
X7620Y173355D02*
X3810Y173355D01*
X-36195Y133350D01*
X-36195Y125730D01*
X-43815Y118110D01*
X-43815Y41910D01*
X-59055Y26670D01*
X-62865Y26670D01*
X-63500Y25400D01*
D21*
X996315Y392430D03*
X956310Y360045D03*
X628650Y281940D03*
X579120Y283845D03*
X489585Y272415D03*
X466725Y270510D03*
X411480Y209550D03*
X182880Y215265D03*
X150495Y198120D03*
X22860Y188595D03*
X7620Y173355D03*
D20*
X992505Y527685D02*
X996315Y523875D01*
X992505Y527685D02*
X960120Y527685D01*
X908685Y476250D01*
X908685Y472440D01*
X901065Y464820D01*
X887730Y464820D01*
X843915Y421005D01*
X843915Y335280D01*
X826770Y318135D01*
X826770Y314325D01*
X828675Y312420D01*
X533400Y285750D02*
X466725Y219075D01*
X462915Y219075D01*
D21*
X996315Y523875D03*
X828675Y312420D03*
X533400Y285750D03*
X462915Y219075D03*
D20*
X1007745Y394335D02*
X1007745Y403860D01*
X1007745Y394335D02*
X965835Y352425D01*
X828675Y262890D02*
X824865Y259080D01*
X824865Y177165D01*
X826770Y175260D01*
X826770Y163830D01*
X805815Y142875D01*
X765810Y142875D01*
X693420Y70485D01*
X609600Y70485D02*
X605790Y70485D01*
X601980Y66675D01*
X567690Y66675D01*
X565785Y64770D01*
X561975Y64770D01*
X554355Y72390D01*
X554355Y78105D01*
X535305Y97155D01*
X523875Y97155D01*
X508635Y81915D01*
X472440Y81915D01*
X470535Y80010D01*
X441960Y80010D01*
X438150Y76200D01*
X438150Y62865D01*
X430530Y55245D01*
X396240Y55245D01*
X367665Y26670D01*
X368300Y25400D01*
D21*
X1007745Y403860D03*
X965835Y352425D03*
X828675Y262890D03*
X693420Y70485D03*
X609600Y70485D03*
D20*
X950595Y512445D02*
X954405Y512445D01*
X950595Y512445D02*
X912495Y474345D01*
X912495Y470535D01*
X902970Y461010D01*
X889635Y461010D01*
X847725Y419100D01*
X847725Y329565D01*
X840105Y321945D01*
X809625Y321945D02*
X805815Y325755D01*
X742950Y325755D01*
X741045Y323850D01*
X649605Y323850D01*
X518160Y285750D02*
X518160Y281940D01*
X476250Y240030D01*
X466725Y240030D01*
X462915Y243840D01*
D21*
X954405Y512445D03*
X840105Y321945D03*
X809625Y321945D03*
X649605Y323850D03*
X518160Y285750D03*
X462915Y243840D03*
D20*
X941070Y440055D02*
X941070Y485775D01*
X941070Y440055D02*
X931545Y430530D01*
X916305Y430530D01*
X851535Y365760D01*
X851535Y274320D01*
X630555Y257175D02*
X621030Y266700D01*
X586740Y266700D01*
X582930Y262890D01*
X573405Y262890D01*
X571500Y260985D01*
X537210Y230505D02*
X483870Y230505D01*
X466725Y213360D01*
X466725Y209550D01*
D21*
X941070Y485775D03*
X851535Y274320D03*
X630555Y257175D03*
X571500Y260985D03*
X537210Y230505D03*
X466725Y209550D03*
D20*
X683895Y230505D02*
X711200Y203200D01*
X683895Y230505D02*
X674370Y230505D01*
X636270Y268605D01*
X630555Y268605D01*
X624840Y274320D01*
X579120Y274320D01*
X521970Y129540D02*
X521970Y125730D01*
X497205Y100965D01*
X480060Y100965D01*
X466725Y87630D01*
X438150Y87630D01*
X421005Y70485D01*
X243840Y70485D01*
X196215Y118110D01*
X196215Y142875D01*
X192405Y146685D01*
X192405Y152400D01*
X179070Y165735D01*
X177800Y165100D01*
X1148715Y518160D02*
X1186815Y556260D01*
X1148715Y518160D02*
X1116330Y518160D01*
X1104900Y506730D01*
X1104900Y348615D01*
X1042035Y285750D01*
X1042035Y281940D01*
X687705Y234315D02*
X683895Y230505D01*
D21*
X579120Y274320D03*
X521970Y129540D03*
X1186815Y556260D03*
X1042035Y281940D03*
X687705Y234315D03*
D20*
X533400Y394335D02*
X533400Y406400D01*
X533400Y394335D02*
X558165Y369570D01*
X558165Y260985D01*
X561975Y257175D01*
X561975Y215265D01*
X598170Y179070D01*
X596900Y177800D01*
X-5715Y544830D02*
X-30480Y544830D01*
X-5715Y544830D02*
X20955Y518160D01*
X53340Y518160D01*
X57150Y514350D01*
X240030Y514350D01*
X253365Y527685D01*
X253365Y560070D01*
X270510Y577215D01*
X350520Y577215D01*
X354330Y573405D01*
X516255Y529590D02*
X516255Y481965D01*
X533400Y464820D01*
X533400Y406400D01*
X-30480Y544830D02*
X-30988Y546100D01*
X1343025Y396240D02*
X1491615Y544830D01*
X1343025Y396240D02*
X1343025Y325755D01*
X1346835Y321945D01*
X1491615Y544830D02*
X1493012Y546100D01*
D21*
X354330Y573405D03*
X516255Y529590D03*
X1346835Y321945D03*
D20*
X407670Y190500D02*
X407670Y140970D01*
X406400Y139700D01*
X406400Y190500D02*
X407670Y190500D01*
X226695Y116205D02*
X215900Y127000D01*
X226695Y116205D02*
X268605Y116205D01*
X279400Y127000D01*
X1205865Y165735D02*
X1205865Y255270D01*
X1194435Y266700D01*
X1205865Y165735D02*
X1206500Y165100D01*
X1194435Y266700D02*
X1193800Y266700D01*
X830580Y38100D02*
X781812Y38100D01*
X916305Y201930D02*
X925830Y201930D01*
X916305Y201930D02*
X899160Y184785D01*
X853440Y184785D01*
X845820Y192405D02*
X838200Y200025D01*
X845820Y192405D02*
X853440Y184785D01*
X838200Y200025D02*
X838200Y203200D01*
X830580Y177165D02*
X830580Y38100D01*
X830580Y177165D02*
X845820Y192405D01*
X831088Y38100D02*
X830580Y38100D01*
X1150620Y266700D02*
X1193800Y266700D01*
X1150620Y266700D02*
X1122045Y295275D01*
X1122045Y299085D01*
X1112520Y308610D01*
X1097280Y308610D01*
X1036320Y247650D01*
X1036320Y192405D01*
X1040130Y188595D01*
X950595Y177165D02*
X925830Y201930D01*
X927100Y203200D01*
X407670Y139065D02*
X407670Y135255D01*
X419100Y123825D01*
X481965Y123825D01*
X542925Y184785D01*
X569595Y217170D02*
X645795Y217170D01*
X659130Y203835D01*
X407670Y139065D02*
X406400Y139700D01*
X659130Y203835D02*
X660400Y203200D01*
D21*
X1040130Y188595D03*
X950595Y177165D03*
X542925Y184785D03*
X569595Y217170D03*
D20*
X596265Y339090D02*
X596265Y354330D01*
X596265Y339090D02*
X561975Y304800D01*
X561975Y272415D01*
X565785Y268605D01*
X516255Y78105D02*
X474345Y78105D01*
X462915Y66675D01*
X426720Y66675D02*
X241935Y66675D01*
X211455Y97155D02*
X192405Y116205D01*
X211455Y97155D02*
X241935Y66675D01*
X192405Y116205D02*
X192405Y140970D01*
X182880Y150495D01*
X173355Y150495D01*
X93345Y70485D01*
X57150Y70485D01*
X53340Y66675D01*
X9525Y66675D01*
X-19050Y38100D01*
X596265Y354330D02*
X596900Y355600D01*
X-19050Y38100D02*
X-19812Y38100D01*
X211455Y91440D02*
X211455Y97155D01*
D21*
X565785Y268605D03*
X516255Y78105D03*
X462915Y66675D03*
X426720Y66675D03*
X211455Y91440D03*
D20*
X1030605Y110490D02*
X1032510Y112395D01*
X1032510Y281940D01*
X1101090Y350520D01*
X1101090Y508635D01*
X1137285Y544830D01*
X1137412Y546100D01*
X1232535Y577215D02*
X1263015Y546735D01*
X1232535Y577215D02*
X1169670Y577215D01*
X1139190Y546735D01*
X1263015Y546735D02*
X1264412Y546100D01*
X1139190Y546735D02*
X1137412Y546100D01*
X274320Y544830D02*
X274320Y525780D01*
X299085Y501015D01*
X299085Y377190D01*
X207645Y285750D01*
X133350Y285750D01*
X129540Y289560D01*
X116205Y276225D02*
X116205Y272415D01*
X200025Y188595D01*
X200025Y150495D01*
X207645Y142875D01*
X209550Y142875D01*
X213360Y139065D01*
X219075Y139065D01*
X234315Y123825D01*
X274320Y85725D02*
X316230Y85725D01*
X323850Y78105D01*
X417195Y78105D01*
X434340Y95250D01*
X462915Y95250D01*
X476250Y108585D01*
X493395Y108585D01*
X497205Y112395D01*
X497205Y127635D01*
X521970Y152400D01*
X542925Y152400D01*
X274320Y544830D02*
X273812Y546100D01*
D21*
X1030605Y110490D03*
X129540Y289560D03*
X116205Y276225D03*
X234315Y123825D03*
X274320Y85725D03*
X542925Y152400D03*
D20*
X862965Y74295D02*
X914400Y125730D01*
X862965Y74295D02*
X855345Y74295D01*
X615315Y62865D02*
X569595Y62865D01*
X567690Y60960D01*
X560070Y60960D01*
X550545Y70485D01*
X550545Y76200D01*
X533400Y93345D01*
X525780Y93345D01*
X521970Y89535D01*
X521970Y85725D01*
X504825Y114300D02*
X504825Y118110D01*
X504825Y114300D02*
X495300Y104775D01*
X478155Y104775D01*
X464820Y91440D01*
X436245Y91440D01*
X419100Y74295D01*
X304800Y74295D01*
X300990Y78105D01*
X264795Y160020D02*
X264795Y179070D01*
X238125Y230505D02*
X238125Y234315D01*
X241935Y238125D01*
X241935Y291465D01*
X257175Y306705D01*
X264795Y306705D01*
X285750Y327660D01*
X285750Y335280D01*
X325755Y375285D01*
X331470Y375285D01*
X914400Y127000D02*
X914400Y125730D01*
D21*
X855345Y74295D03*
X615315Y62865D03*
X521970Y85725D03*
X504825Y118110D03*
X300990Y78105D03*
X264795Y160020D03*
X264795Y179070D03*
X238125Y230505D03*
X331470Y375285D03*
D20*
X920115Y493395D02*
X920115Y499110D01*
X920115Y493395D02*
X899160Y472440D01*
X832485Y411480D02*
X828675Y415290D01*
X832485Y411480D02*
X832485Y382905D01*
X828675Y379095D01*
X582930Y377190D02*
X582930Y405765D01*
X584200Y406400D01*
D21*
X920115Y499110D03*
X899160Y472440D03*
X828675Y415290D03*
X828675Y379095D03*
X582930Y377190D03*
D20*
X504825Y556260D02*
X520065Y571500D01*
X504825Y556260D02*
X504825Y546735D01*
X487680Y529590D01*
X485775Y529590D01*
X472440Y516255D01*
X430530Y516255D01*
X386715Y472440D01*
X386715Y464820D01*
X367665Y445770D01*
X361950Y445770D01*
X350520Y434340D01*
X342900Y434340D01*
X335280Y426720D01*
X335280Y417195D01*
X331470Y413385D01*
X339090Y381000D02*
X339090Y360045D01*
X335280Y356235D01*
X335280Y352425D01*
X400050Y287655D01*
X434340Y287655D01*
X441960Y280035D01*
X447675Y280035D01*
X464820Y262890D01*
X489585Y262890D01*
X521970Y104775D02*
X525780Y100965D01*
X615315Y100965D01*
X624840Y91440D01*
X624840Y53340D01*
X596900Y25400D01*
X520700Y571500D02*
X520065Y571500D01*
D21*
X331470Y413385D03*
X339090Y381000D03*
X489585Y262890D03*
X521970Y104775D03*
D20*
X544830Y560070D02*
X544830Y571500D01*
X544830Y560070D02*
X535305Y550545D01*
X535305Y541020D01*
X542925Y533400D01*
X542925Y518160D01*
X552450Y508635D01*
X552450Y501015D01*
X584835Y508635D02*
X586740Y510540D01*
X594360Y510540D01*
X600075Y516255D01*
X605790Y516255D01*
X615315Y468630D02*
X619125Y468630D01*
X645795Y441960D01*
X645795Y436245D01*
X657225Y424815D01*
X664845Y424815D01*
X670560Y419100D01*
X670560Y392430D01*
X721995Y340995D01*
X744855Y340995D01*
X744855Y314325D02*
X754380Y304800D01*
X754380Y257175D01*
X733425Y236220D01*
X733425Y121920D01*
X697230Y85725D01*
X693420Y85725D01*
X670560Y62865D01*
X657225Y62865D01*
X621030Y26670D01*
X546100Y571500D02*
X544830Y571500D01*
X621030Y26670D02*
X622300Y25400D01*
D21*
X552450Y501015D03*
X584835Y508635D03*
X605790Y516255D03*
X615315Y468630D03*
X744855Y340995D03*
X744855Y314325D03*
D20*
X901065Y516255D02*
X901065Y544830D01*
X901065Y516255D02*
X870585Y485775D01*
X849630Y485775D01*
X840105Y476250D01*
X840105Y337185D01*
X822960Y320040D01*
X822960Y316230D01*
X821055Y314325D01*
X821055Y175260D01*
X822960Y173355D01*
X822960Y165735D01*
X803910Y146685D01*
X763905Y146685D01*
X699135Y81915D01*
X695325Y81915D01*
X672465Y59055D01*
X659130Y59055D01*
X647700Y47625D01*
X647700Y25400D01*
X901065Y544830D02*
X901700Y546100D01*
X432435Y190500D02*
X432435Y140970D01*
X431800Y139700D01*
X407670Y224790D02*
X407670Y240030D01*
X407670Y224790D02*
X432435Y200025D01*
X432435Y190500D01*
X407670Y240030D02*
X406400Y241300D01*
X431800Y190500D02*
X432435Y190500D01*
X304800Y190500D02*
X304800Y175260D01*
X304800Y152400D01*
X304800Y127000D01*
X352425Y175260D02*
X367665Y190500D01*
X352425Y175260D02*
X304800Y175260D01*
X367665Y190500D02*
X368300Y190500D01*
X304800Y152400D02*
X215900Y152400D01*
X45720Y62865D02*
X20955Y38100D01*
X45720Y62865D02*
X55245Y62865D01*
X59055Y66675D01*
X95250Y66675D01*
X131445Y102870D02*
X169545Y140970D01*
X131445Y102870D02*
X95250Y66675D01*
X169545Y140970D02*
X177165Y140970D01*
X20955Y38100D02*
X19812Y38100D01*
X177800Y139700D02*
X177165Y140970D01*
X131445Y102870D02*
X196215Y38100D01*
X197612Y38100D01*
X-64770Y432435D02*
X-89535Y457200D01*
X-89535Y527685D01*
X-72390Y544830D01*
X-64770Y432435D02*
X-63500Y431800D01*
X-72390Y544830D02*
X-70612Y546100D01*
X-3810Y581025D02*
X30480Y546735D01*
X-3810Y581025D02*
X-36195Y581025D01*
X-70485Y546735D01*
X30480Y546735D02*
X30988Y546100D01*
X-70485Y546735D02*
X-70612Y546100D01*
X173355Y546735D02*
X232410Y546735D01*
X173355Y546735D02*
X172212Y546100D01*
X232410Y546735D02*
X234188Y546100D01*
X337185Y546735D02*
X361950Y571500D01*
X361950Y575310D01*
X356235Y581025D01*
X268605Y581025D01*
X234315Y546735D01*
X335788Y546100D02*
X337185Y546735D01*
X234315Y546735D02*
X234188Y546100D01*
X388620Y581025D02*
X422910Y546735D01*
X388620Y581025D02*
X356235Y581025D01*
X422910Y546735D02*
X424688Y546100D01*
X59055Y518160D02*
X32385Y544830D01*
X59055Y518160D02*
X144780Y518160D01*
X171450Y544830D01*
X32385Y544830D02*
X30988Y546100D01*
X171450Y544830D02*
X172212Y546100D01*
X1379220Y546735D02*
X1451610Y546735D01*
X1379220Y546735D02*
X1378712Y546100D01*
X1451610Y546735D02*
X1453388Y546100D01*
X1543050Y407670D02*
X1562100Y407670D01*
X1543050Y407670D02*
X1525905Y424815D01*
X1525905Y529590D01*
X1541145Y544830D01*
X1562100Y407670D02*
X1562100Y406400D01*
X1541145Y544830D02*
X1542288Y546100D01*
X571500Y177800D02*
X571500Y139065D01*
X582930Y127635D01*
X584200Y127000D01*
X554355Y346710D02*
X546735Y354330D01*
X554355Y346710D02*
X554355Y259080D01*
X558165Y255270D01*
X558165Y192405D01*
X571500Y179070D01*
X546735Y354330D02*
X546100Y355600D01*
X571500Y179070D02*
X571500Y177800D01*
X1243965Y62865D02*
X1243965Y26670D01*
X1244600Y25400D01*
X1243965Y62865D02*
X1244600Y63500D01*
X1243965Y64770D02*
X1243965Y99060D01*
X1243965Y114300D01*
X1244600Y114300D01*
X1243965Y64770D02*
X1244600Y63500D01*
X1087755Y62865D02*
X1062990Y38100D01*
X1087755Y62865D02*
X1095375Y62865D01*
X1099185Y66675D01*
X1120140Y66675D01*
X1148715Y38100D01*
X1062990Y38100D02*
X1061212Y38100D01*
X1148715Y38100D02*
X1150112Y38100D01*
X1230630Y11430D02*
X1244600Y25400D01*
X1230630Y11430D02*
X1177290Y11430D01*
X1150620Y38100D01*
X1150112Y38100D01*
X811530Y100965D02*
X805815Y100965D01*
X742950Y38100D01*
X811530Y100965D02*
X812800Y101600D01*
X742950Y38100D02*
X742188Y38100D01*
X756285Y451485D02*
X750570Y457200D01*
X756285Y451485D02*
X756285Y421005D01*
X748665Y413385D01*
X748665Y409575D01*
X744855Y405765D01*
X744855Y377190D01*
X741045Y373380D01*
X741045Y365760D01*
X748665Y358140D01*
X750570Y358140D01*
X758190Y350520D01*
X758190Y314325D02*
X758190Y234315D01*
X767715Y224790D01*
X767715Y209550D01*
X773430Y203835D01*
X750570Y457200D02*
X749300Y457200D01*
X773430Y203835D02*
X774700Y203200D01*
X998220Y154305D02*
X998220Y139065D01*
X998220Y154305D02*
X952500Y200025D01*
X952500Y203200D01*
X1524000Y68580D02*
X1527810Y64770D01*
X1524000Y68580D02*
X1495425Y68580D01*
X1474470Y89535D01*
X1354455Y89535D01*
X1344930Y99060D01*
X1243965Y99060D01*
X541020Y59055D02*
X478155Y59055D01*
X541020Y59055D02*
X571500Y28575D01*
X571500Y25400D01*
D21*
X758190Y350520D03*
X758190Y314325D03*
X998220Y139065D03*
X1527810Y64770D03*
X478155Y59055D03*
D20*
X1371600Y63500D02*
X1371600Y25400D01*
X457200Y401955D02*
X457200Y406400D01*
X457200Y401955D02*
X478155Y381000D01*
X535305Y381000D01*
X1021080Y249555D02*
X1021080Y245745D01*
X1021080Y249555D02*
X1024890Y253365D01*
X1024890Y276225D01*
X912495Y388620D01*
D21*
X535305Y381000D03*
X1021080Y245745D03*
X912495Y388620D03*
D20*
X527685Y312420D02*
X523875Y308610D01*
X508635Y308610D01*
X487680Y287655D01*
X474345Y287655D01*
X470535Y291465D01*
X432435Y106680D02*
X432435Y104775D01*
X413385Y85725D01*
X327660Y85725D01*
X312420Y100965D01*
X312420Y104775D01*
X285750Y104775D02*
X281940Y108585D01*
X222885Y108585D01*
X219075Y104775D01*
D21*
X527685Y312420D03*
X470535Y291465D03*
X432435Y106680D03*
X312420Y104775D03*
X285750Y104775D03*
X219075Y104775D03*
D20*
X609600Y406400D02*
X609600Y455295D01*
X601980Y462915D01*
X520065Y468630D02*
X520065Y451485D01*
X497205Y428625D01*
X453390Y428625D01*
X436245Y411480D01*
X436245Y407670D01*
X424815Y396240D01*
X403860Y396240D01*
X121920Y255270D02*
X118110Y255270D01*
X121920Y255270D02*
X175260Y201930D01*
X175260Y188595D01*
X169545Y182880D01*
X165735Y182880D01*
X160020Y177165D01*
X160020Y142875D01*
X95250Y78105D01*
X91440Y78105D01*
D21*
X601980Y462915D03*
X520065Y468630D03*
X403860Y396240D03*
X118110Y255270D03*
X91440Y78105D03*
D20*
X586740Y459105D02*
X586740Y462915D01*
X596265Y472440D01*
X601980Y472440D01*
X613410Y461010D01*
X621030Y461010D01*
X641985Y440055D01*
X641985Y434340D01*
X655320Y421005D01*
X662940Y421005D01*
X666750Y417195D01*
X666750Y390525D01*
X697230Y360045D01*
X697230Y337185D01*
X706755Y327660D01*
X739140Y327660D01*
X741045Y329565D01*
X811530Y329565D01*
X819150Y321945D01*
X819150Y318135D01*
X817245Y316230D01*
X817245Y255270D01*
X813435Y251460D01*
X982980Y238125D02*
X998220Y238125D01*
X1005840Y230505D01*
X1183005Y180975D02*
X1198245Y196215D01*
D21*
X586740Y459105D03*
X813435Y251460D03*
X982980Y238125D03*
X1005840Y230505D03*
X1183005Y180975D03*
X1198245Y196215D03*
D20*
X782955Y415290D02*
X752475Y384810D01*
X752475Y369570D01*
X643890Y377190D02*
X636270Y377190D01*
X632460Y381000D01*
X596265Y381000D01*
X571500Y356235D01*
X571500Y355600D01*
D21*
X782955Y415290D03*
X752475Y369570D03*
X643890Y377190D03*
D20*
X678180Y436245D02*
X683895Y441960D01*
X678180Y436245D02*
X662940Y436245D01*
X657225Y441960D01*
X657225Y447675D01*
X643890Y461010D01*
X643890Y464820D01*
D21*
X683895Y441960D03*
X643890Y464820D03*
D20*
X1280160Y114300D02*
X1371600Y114300D01*
X1280160Y114300D02*
X1230630Y163830D01*
X1231900Y165100D01*
X1371600Y114300D02*
X1371600Y292100D01*
X421005Y291465D02*
X417195Y295275D01*
X421005Y291465D02*
X436245Y291465D01*
X443865Y283845D01*
X489585Y283845D01*
X510540Y304800D01*
X527685Y304800D01*
X542925Y289560D01*
X542925Y253365D01*
X546735Y249555D01*
X546735Y226695D01*
X542925Y222885D01*
X569595Y232410D02*
X581025Y220980D01*
X641985Y220980D01*
X655320Y234315D01*
X748665Y238125D02*
X748665Y241935D01*
X748665Y238125D02*
X763905Y222885D01*
X763905Y188595D01*
X784860Y167640D01*
X815340Y167640D01*
D21*
X417195Y295275D03*
X542925Y222885D03*
X569595Y232410D03*
X655320Y234315D03*
X748665Y241935D03*
X815340Y167640D03*
M02*
