M48
;GenerationSoftware,Autodesk,EAGLE,8.7.0*%
;CreationDate,2018-03-25T19:01:44Z*%
FMAT,2
ICI,OFF
METRIC,TZ,000.000
T7C0.350
T6C0.813
T5C1.000
T4C1.016
T3C1.118
T2C1.200
T1C1.676
%
G90
M71
T1
X133909Y54610
X158191Y54610
X-7061Y54610
X-3099Y54610
X145339Y54610
X149301Y54610
X3099Y54610
X23419Y54610
X7061Y54610
X154229Y54610
X10871Y3810
X6909Y3810
X145339Y3810
X149301Y3810
X1981Y3810
X27381Y54610
X33579Y54610
X37541Y54610
X83109Y3810
X87071Y3810
X122479Y54610
X126441Y54610
X111049Y3810
X-1981Y3810
X19761Y3810
X15799Y3810
X28651Y3810
X137871Y54610
X115011Y3810
X46431Y54610
X109779Y54610
X113741Y54610
X74219Y3810
X24689Y3810
X78181Y3810
X42469Y54610
X17221Y54610
X13259Y54610
X106121Y3810
X102159Y3810
T2
X45720Y40640
X46990Y35560
X60960Y40640
X59690Y35560
X58420Y40640
X55880Y40640
X48260Y40640
X50800Y40640
X52070Y35560
X53340Y40640
X54610Y35560
X57150Y35560
X49530Y35560
X62230Y35560
X63500Y40640
T3
X91440Y12700
X129540Y26670
X119380Y26670
X101600Y12700
T4
X156210Y10160
X156210Y12700
X156210Y15240
X156210Y17780
X156210Y20320
X156210Y22860
X156210Y25400
X156210Y27940
X156210Y30480
X-6350Y2540
X-6350Y5080
X-6350Y7620
X-6350Y10160
X-6350Y12700
X-6350Y15240
X-6350Y17780
X-6350Y20320
X-6350Y22860
X-6350Y25400
X-6350Y27940
X-6350Y30480
X-6350Y50800
X-6350Y48260
X-6350Y45720
X-6350Y43180
X-6350Y40640
X-6350Y38100
X-6350Y35560
X-6350Y33020
X156210Y33020
X156210Y35560
X156210Y38100
X156210Y40640
X156210Y43180
X156210Y45720
X156210Y48260
X156210Y50800
X67310Y45720
X69850Y45720
X72390Y45720
X74930Y45720
X77470Y45720
X80010Y45720
X82550Y45720
X85090Y45720
X41910Y2540
X52070Y2540
X54610Y2540
X57150Y2540
X62230Y2540
X64770Y2540
X67310Y2540
X69850Y2540
X66040Y20320
X68580Y20320
X71120Y20320
X92710Y20320
X95250Y20320
X97790Y20320
X83820Y20320
X86360Y20320
X88900Y20320
X74930Y20320
X80010Y20320
X120650Y16510
X123190Y16510
X125730Y16510
X59690Y2540
X77470Y20320
X49530Y2540
X46990Y2540
X44450Y2540
X39370Y2540
X36830Y2540
X34290Y2540
X31750Y2540
X156210Y2540
X156210Y5080
X156210Y7620
T5
X92710Y54610
X82550Y57150
X85090Y54610
X85090Y57150
X87630Y54610
X87630Y57150
X90170Y54610
X90170Y57150
X69850Y57150
X92710Y57150
X95250Y54610
X95250Y57150
X97790Y54610
X97790Y57150
X100330Y54610
X72390Y54610
X77470Y57150
X69850Y54610
X67310Y57150
X67310Y54610
X64770Y57150
X64770Y54610
X62230Y57150
X62230Y54610
X59690Y57150
X59690Y54610
X57150Y57150
X57150Y54610
X54610Y54610
X52070Y57150
X52070Y54610
X80010Y54610
X80010Y57150
X82550Y54610
X54610Y57150
X100330Y57150
X74930Y54610
X74930Y57150
X77470Y54610
X72390Y57150
T6
X137160Y11430
X58420Y12700
X60960Y12700
X81280Y10160
X81280Y12700
X34290Y19050
X43180Y13970
X40640Y13970
X21590Y15240
X21590Y12700
X43180Y19050
X40640Y19050
X17780Y16510
X57150Y17780
X124460Y6350
X137160Y6350
X124460Y2540
X137160Y2540
X59690Y17780
X30480Y12700
X27940Y12700
X30480Y19050
X40640Y26670
X40640Y24130
X27940Y19050
X17780Y13970
X137160Y29210
X149860Y29210
X124460Y11430
X36830Y19050
T7
X30099Y7810
X26479Y16002
X26479Y17907
X23812Y23050
X33147Y37529
X92011Y49911
X89916Y47244
X82868Y41529
X82868Y37910
X58293Y37719
X33147Y41339
X33909Y38100
X48958Y26289
X52197Y10478
X55245Y50101
X58483Y50863
X60579Y51625
X61531Y46863
X74486Y34100
X74486Y31432
X75819Y35052
X75819Y31432
X99822Y13906
X152781Y6477
X47815Y5905
X53530Y38100
X102108Y24574
X91249Y38862
X111442Y29718
X47053Y29146
X43244Y10668
X31242Y10478
X28575Y10478
X21907Y10478
X60198Y46291
X52006Y46863
X40386Y39624
X11811Y25527
X9144Y7810
X58674Y45910
X81344Y25146
X98298Y23812
X100584Y23050
X118300Y18098
X119824Y19622
X78296Y41529
X75248Y36957
X64389Y37719
X68390Y44196
X64389Y46482
X41720Y29527
X54292Y22288
X56959Y23241
X65532Y23431
X74867Y24193
X81534Y16764
X56388Y7239
X61722Y8954
X77915Y9525
X99250Y21717
X46101Y46291
X42863Y40958
X43625Y23812
X46672Y13144
X45529Y7239
X61531Y48387
X68961Y43244
X72390Y42482
X74867Y35052
X68961Y31432
X61722Y28956
X49149Y51816
X41529Y44196
X40577Y42291
X41910Y40958
X42863Y22288
X48958Y14097
X63055Y50863
X82106Y32957
X80201Y31051
X77534Y27813
X56007Y16955
X50292Y8954
X50673Y4000
X38291Y39624
X121348Y51816
X55816Y18288
X52768Y31242
X98488Y36195
X103251Y41148
X47053Y5144
X53340Y5144
X58293Y10859
X68961Y38291
X67056Y36386
X7239Y32194
X81344Y23812
X132779Y28956
X54292Y16192
X78105Y18098
X34290Y35433
X53911Y31432
X61912Y32766
X65532Y29146
X97726Y34481
X103822Y40386
X95440Y50292
X85535Y38481
X68961Y39243
X70866Y51625
X70485Y49149
X91630Y53149
X108966Y35433
X153543Y30289
X85916Y52197
X89344Y52006
X83820Y51435
X88773Y51244
X93154Y47625
X93154Y44005
X109918Y30099
X112585Y27432
X85154Y47815
X87630Y46482
X91821Y42291
X108585Y36767
X119443Y32004
X124396Y27051
X71438Y55626
X71819Y51625
X71819Y49149
X70866Y41720
X91821Y40767
X96964Y40767
X153162Y32194
X73533Y53911
X76772Y51625
X76391Y49530
X81725Y39243
X92392Y36767
X101346Y22098
X106870Y16574
X63627Y49149
X66294Y47625
X90297Y40767
X57150Y50101
X48768Y7048
X51054Y7048
X53721Y7048
X61531Y5334
X86868Y7048
X100012Y8954
X134684Y8763
X148590Y6858
X93726Y55435
X108585Y34481
X152019Y30861
X59055Y53149
X50482Y51244
X43053Y44767
X59436Y45148
X57150Y38291
X48958Y11620
X59055Y52197
X50482Y50292
X43244Y43815
X65913Y51625
X59626Y50101
X47434Y44958
X45910Y44005
X43053Y42101
X22098Y22288
X72390Y52387
X69342Y49720
X64579Y49149
X51244Y45339
X44958Y43625
X43625Y42863
X27051Y33338
X9144Y26289
X75438Y49530
X70485Y33909
X52578Y29718
X19622Y21907
X15811Y19050
X75248Y53149
X67056Y53149
X58293Y53911
X29146Y49720
X14287Y29337
X10478Y25527
X82868Y42482
X77153Y38481
X53149Y33338
X31051Y5905
X79629Y51625
X49339Y44005
X45720Y45339
X37910Y42672
X58483Y49339
X50292Y48006
X48196Y48006
X46482Y49720
X34671Y42291
X63055Y25717
X28765Y42291
X99631Y39243
X95631Y36005
X62865Y28194
X57912Y28384
X48958Y27241
X46672Y27051
X41148Y20955
X18288Y21527
X15049Y19812
X2286Y18860
X762Y17336
X99631Y52387
X82868Y31242
X53340Y28575
X46291Y21907
X100774Y40386
X96583Y35243
X82868Y26289
X69342Y7048
X60960Y7048
X95440Y51244
X84011Y32194
X80963Y32194
X64960Y32385
X51816Y28575
X46291Y24384
X94107Y48577
X85154Y27432
X57150Y26098
X53721Y23050
X46672Y20955
X57912Y27432
X52197Y12954
X118681Y55626
X104203Y28194
X68771Y23431
X35433Y57340
X51625Y52959
X134684Y32194
X104013Y18860
X95059Y17717
X54292Y18479
X56959Y21717
X56578Y26860
X51625Y7810
X46291Y6667
X42672Y6667
X21146Y9144
X103060Y11049
X12954Y28956
X11620Y27622
X23431Y12382
X27432Y8573
X54292Y15240
X85535Y7429
X61531Y6286
X52197Y8573
X50482Y11811
M30