G04 EAGLE Gerber X2 export*
%TF.Part,Single*%
%TF.FileFunction,Soldermask,Bot,1*%
%TF.FilePolarity,Negative*%
%TF.GenerationSoftware,Autodesk,EAGLE,8.7.0*%
%TF.CreationDate,2018-03-25T19:01:44Z*%
G75*
%MOMM*%
%FSLAX34Y34*%
%LPD*%
%AMOC8*
5,1,8,0,0,1.08239X$1,22.5*%
G01*
%ADD10P,1.951982X8X22.500000*%
%ADD11P,1.951982X8X112.500000*%
%ADD12P,1.951982X8X202.500000*%
%ADD13P,1.951982X8X292.500000*%
%ADD14C,1.879600*%
%ADD15C,2.717800*%
%ADD16C,1.727200*%
%ADD17P,1.852186X8X22.500000*%
%ADD18P,1.649562X8X22.500000*%
%ADD19C,2.003200*%
%ADD20C,0.959600*%


D10*
X406400Y190500D03*
X431800Y190500D03*
D11*
X215900Y127000D03*
X215900Y152400D03*
D10*
X406400Y139700D03*
X431800Y139700D03*
X342900Y190500D03*
X368300Y190500D03*
X279400Y190500D03*
X304800Y190500D03*
X279400Y127000D03*
X304800Y127000D03*
D12*
X596900Y177800D03*
X571500Y177800D03*
D13*
X177800Y165100D03*
X177800Y139700D03*
X812800Y127000D03*
X812800Y101600D03*
D12*
X609600Y127000D03*
X584200Y127000D03*
D14*
X1016000Y127000D03*
X914400Y127000D03*
X1295400Y266700D03*
X1193800Y266700D03*
D15*
X1339088Y533527D02*
X1339088Y558673D01*
X1378712Y558673D02*
X1378712Y533527D01*
X1150112Y50673D02*
X1150112Y25527D01*
X1110488Y25527D02*
X1110488Y50673D01*
D16*
X495300Y33020D02*
X495300Y17780D01*
X469900Y17780D02*
X469900Y33020D01*
X444500Y33020D02*
X444500Y17780D01*
X419100Y17780D02*
X419100Y33020D01*
X393700Y33020D02*
X393700Y17780D01*
X368300Y17780D02*
X368300Y33020D01*
X342900Y33020D02*
X342900Y17780D01*
X317500Y17780D02*
X317500Y33020D01*
X1554480Y25400D02*
X1569720Y25400D01*
X1569720Y50800D02*
X1554480Y50800D01*
X1554480Y76200D02*
X1569720Y76200D01*
X1569720Y101600D02*
X1554480Y101600D01*
X1554480Y127000D02*
X1569720Y127000D01*
X1569720Y152400D02*
X1554480Y152400D01*
X1554480Y177800D02*
X1569720Y177800D01*
X1569720Y203200D02*
X1554480Y203200D01*
X1554480Y228600D02*
X1569720Y228600D01*
X1569720Y254000D02*
X1554480Y254000D01*
X1554480Y279400D02*
X1569720Y279400D01*
X1569720Y304800D02*
X1554480Y304800D01*
X-55880Y25400D02*
X-71120Y25400D01*
X-71120Y50800D02*
X-55880Y50800D01*
X-55880Y76200D02*
X-71120Y76200D01*
X-71120Y101600D02*
X-55880Y101600D01*
X-55880Y127000D02*
X-71120Y127000D01*
X-71120Y152400D02*
X-55880Y152400D01*
X-55880Y177800D02*
X-71120Y177800D01*
X-71120Y203200D02*
X-55880Y203200D01*
X-55880Y228600D02*
X-71120Y228600D01*
X-71120Y254000D02*
X-55880Y254000D01*
X-55880Y279400D02*
X-71120Y279400D01*
X-71120Y304800D02*
X-55880Y304800D01*
X-55880Y508000D02*
X-71120Y508000D01*
X-71120Y482600D02*
X-55880Y482600D01*
X-55880Y457200D02*
X-71120Y457200D01*
X-71120Y431800D02*
X-55880Y431800D01*
X-55880Y406400D02*
X-71120Y406400D01*
X-71120Y381000D02*
X-55880Y381000D01*
X-55880Y355600D02*
X-71120Y355600D01*
X-71120Y330200D02*
X-55880Y330200D01*
X1554480Y330200D02*
X1569720Y330200D01*
X1569720Y355600D02*
X1554480Y355600D01*
X1554480Y381000D02*
X1569720Y381000D01*
X1569720Y406400D02*
X1554480Y406400D01*
X1554480Y431800D02*
X1569720Y431800D01*
X1569720Y457200D02*
X1554480Y457200D01*
X1554480Y482600D02*
X1569720Y482600D01*
X1569720Y508000D02*
X1554480Y508000D01*
D15*
X1061212Y50673D02*
X1061212Y25527D01*
X1021588Y25527D02*
X1021588Y50673D01*
D16*
X673100Y449580D02*
X673100Y464820D01*
X698500Y464820D02*
X698500Y449580D01*
X723900Y449580D02*
X723900Y464820D01*
X749300Y464820D02*
X749300Y449580D01*
X774700Y449580D02*
X774700Y464820D01*
X800100Y464820D02*
X800100Y449580D01*
X825500Y449580D02*
X825500Y464820D01*
X850900Y464820D02*
X850900Y449580D01*
D17*
X520700Y546100D03*
X520700Y571500D03*
X546100Y546100D03*
X546100Y571500D03*
X571500Y546100D03*
X571500Y571500D03*
X596900Y546100D03*
X596900Y571500D03*
X622300Y546100D03*
X622300Y571500D03*
X647700Y546100D03*
X647700Y571500D03*
X673100Y546100D03*
X673100Y571500D03*
X698500Y546100D03*
X698500Y571500D03*
X723900Y546100D03*
X723900Y571500D03*
X749300Y546100D03*
X749300Y571500D03*
X774700Y546100D03*
X774700Y571500D03*
X800100Y546100D03*
X800100Y571500D03*
X825500Y546100D03*
X825500Y571500D03*
X850900Y546100D03*
X850900Y571500D03*
X876300Y546100D03*
X876300Y571500D03*
X901700Y546100D03*
X901700Y571500D03*
X927100Y546100D03*
X927100Y571500D03*
X952500Y546100D03*
X952500Y571500D03*
X977900Y546100D03*
X977900Y571500D03*
X1003300Y546100D03*
X1003300Y571500D03*
D16*
X520700Y33020D02*
X520700Y17780D01*
X546100Y17780D02*
X546100Y33020D01*
X571500Y33020D02*
X571500Y17780D01*
X596900Y17780D02*
X596900Y33020D01*
X622300Y33020D02*
X622300Y17780D01*
X647700Y17780D02*
X647700Y33020D01*
X673100Y33020D02*
X673100Y17780D01*
X698500Y17780D02*
X698500Y33020D01*
D18*
X1371600Y292100D03*
X1498600Y292100D03*
X1244600Y114300D03*
X1371600Y114300D03*
D16*
X660400Y195580D02*
X660400Y210820D01*
X685800Y210820D02*
X685800Y195580D01*
X711200Y195580D02*
X711200Y210820D01*
X927100Y210820D02*
X927100Y195580D01*
X952500Y195580D02*
X952500Y210820D01*
X977900Y210820D02*
X977900Y195580D01*
X838200Y195580D02*
X838200Y210820D01*
X863600Y210820D02*
X863600Y195580D01*
X889000Y195580D02*
X889000Y210820D01*
X749300Y210820D02*
X749300Y195580D01*
X774700Y195580D02*
X774700Y210820D01*
X800100Y210820D02*
X800100Y195580D01*
X1206500Y172720D02*
X1206500Y157480D01*
X1231900Y157480D02*
X1231900Y172720D01*
X1257300Y172720D02*
X1257300Y157480D01*
D15*
X1581912Y533527D02*
X1581912Y558673D01*
X1542288Y558673D02*
X1542288Y533527D01*
X70612Y533527D02*
X70612Y558673D01*
X30988Y558673D02*
X30988Y533527D01*
X1493012Y533527D02*
X1493012Y558673D01*
X1453388Y558673D02*
X1453388Y533527D01*
X-30988Y533527D02*
X-30988Y558673D01*
X-70612Y558673D02*
X-70612Y533527D01*
X132588Y533527D02*
X132588Y558673D01*
X172212Y558673D02*
X172212Y533527D01*
X464312Y533527D02*
X464312Y558673D01*
X424688Y558673D02*
X424688Y533527D01*
X781812Y50673D02*
X781812Y25527D01*
X742188Y25527D02*
X742188Y50673D01*
X1137412Y533527D02*
X1137412Y558673D01*
X1097788Y558673D02*
X1097788Y533527D01*
X1264412Y533527D02*
X1264412Y558673D01*
X1224788Y558673D02*
X1224788Y533527D01*
X870712Y50673D02*
X870712Y25527D01*
X831088Y25527D02*
X831088Y50673D01*
X375412Y533527D02*
X375412Y558673D01*
X335788Y558673D02*
X335788Y533527D01*
X273812Y533527D02*
X273812Y558673D01*
X234188Y558673D02*
X234188Y533527D01*
D19*
X546100Y364600D02*
X546100Y346600D01*
X533400Y397400D02*
X533400Y415400D01*
X520700Y364600D02*
X520700Y346600D01*
X508000Y397400D02*
X508000Y415400D01*
X495300Y364600D02*
X495300Y346600D01*
X482600Y397400D02*
X482600Y415400D01*
X558800Y415400D02*
X558800Y397400D01*
X571500Y364600D02*
X571500Y346600D01*
X584200Y397400D02*
X584200Y415400D01*
X596900Y364600D02*
X596900Y346600D01*
X609600Y397400D02*
X609600Y415400D01*
X469900Y364600D02*
X469900Y346600D01*
X457200Y397400D02*
X457200Y415400D01*
X622300Y364600D02*
X622300Y346600D01*
X635000Y397400D02*
X635000Y415400D01*
D18*
X1244600Y63500D03*
X1371600Y63500D03*
X1244600Y25400D03*
X1371600Y25400D03*
D15*
X108712Y25527D02*
X108712Y50673D01*
X69088Y50673D02*
X69088Y25527D01*
X1453388Y25527D02*
X1453388Y50673D01*
X1493012Y50673D02*
X1493012Y25527D01*
D13*
X406400Y266700D03*
X406400Y241300D03*
D15*
X19812Y50673D02*
X19812Y25527D01*
X-19812Y25527D02*
X-19812Y50673D01*
X197612Y50673D02*
X197612Y25527D01*
X157988Y25527D02*
X157988Y50673D01*
X286512Y50673D02*
X286512Y25527D01*
X246888Y25527D02*
X246888Y50673D01*
D20*
X563880Y72390D03*
X617220Y89535D03*
X779145Y95250D03*
X992505Y217170D03*
X461010Y462915D03*
X428625Y409575D03*
X436245Y238125D03*
X466725Y131445D03*
X455295Y72390D03*
X615315Y483870D03*
X689610Y432435D03*
X723900Y424815D03*
X748665Y350520D03*
X689610Y314325D03*
X617220Y289560D03*
X491490Y518160D03*
X415290Y441960D03*
X405765Y422910D03*
X419100Y409575D03*
X428625Y222885D03*
X489585Y140970D03*
X630555Y508635D03*
X821055Y329565D03*
X802005Y310515D03*
X775335Y278130D03*
X560070Y169545D03*
X502920Y89535D03*
X506730Y40005D03*
X382905Y396240D03*
X1213485Y518160D03*
X558165Y182880D03*
X984885Y361950D03*
X1032510Y411480D03*
X470535Y51435D03*
X533400Y51435D03*
X582930Y108585D03*
X689610Y382905D03*
X670560Y363855D03*
X72390Y321945D03*
X813435Y238125D03*
X1327785Y289560D03*
X542925Y161925D03*
X781050Y180975D03*
X342900Y354330D03*
X539115Y314325D03*
X619125Y327660D03*
X655320Y291465D03*
X977265Y344805D03*
X1038225Y403860D03*
X954405Y502920D03*
X855345Y384810D03*
X689610Y392430D03*
X708660Y516255D03*
X704850Y491490D03*
X916305Y531495D03*
X1089660Y354330D03*
X1535430Y302895D03*
X859155Y521970D03*
X893445Y520065D03*
X1114425Y297180D03*
X838200Y514350D03*
X887730Y512445D03*
X931545Y476250D03*
X931545Y440055D03*
X1099185Y300990D03*
X1125855Y274320D03*
X851535Y478155D03*
X876300Y464820D03*
X918210Y422910D03*
X1085850Y367665D03*
X1194435Y320040D03*
X1243965Y270510D03*
X714375Y556260D03*
X718185Y516255D03*
X718185Y491490D03*
X708660Y417195D03*
X918210Y407670D03*
X969645Y407670D03*
X1531620Y321945D03*
X735330Y539115D03*
X767715Y516255D03*
X763905Y495300D03*
X817245Y392430D03*
X923925Y367665D03*
X1013460Y220980D03*
X1068705Y165735D03*
X636270Y491490D03*
X662940Y476250D03*
X902970Y407670D03*
X571500Y501015D03*
X487680Y70485D03*
X510540Y70485D03*
X537210Y70485D03*
X615315Y53340D03*
X868680Y70485D03*
X1000125Y89535D03*
X1346835Y87630D03*
X1485900Y68580D03*
X937260Y554355D03*
X1085850Y344805D03*
X1520190Y308610D03*
X590550Y531495D03*
X504825Y512445D03*
X430530Y447675D03*
X594360Y451485D03*
X571500Y382905D03*
X489585Y116205D03*
X590550Y521970D03*
X504825Y502920D03*
X432435Y438150D03*
X659130Y516255D03*
X596265Y501015D03*
X474345Y449580D03*
X459105Y440055D03*
X430530Y421005D03*
X220980Y222885D03*
X723900Y523875D03*
X693420Y497205D03*
X645795Y491490D03*
X512445Y453390D03*
X449580Y436245D03*
X436245Y428625D03*
X270510Y333375D03*
X91440Y262890D03*
X754380Y495300D03*
X704850Y339090D03*
X525780Y297180D03*
X196215Y219075D03*
X158115Y190500D03*
X752475Y531495D03*
X670560Y531495D03*
X582930Y539115D03*
X291465Y497205D03*
X142875Y293370D03*
X104775Y255270D03*
X828675Y424815D03*
X771525Y384810D03*
X531495Y333375D03*
X310515Y59055D03*
X796290Y516255D03*
X493395Y440055D03*
X457200Y453390D03*
X379095Y426720D03*
X584835Y493395D03*
X502920Y480060D03*
X481965Y480060D03*
X464820Y497205D03*
X346710Y422910D03*
X287655Y422910D03*
X996315Y392430D03*
X956310Y360045D03*
X628650Y281940D03*
X579120Y283845D03*
X489585Y272415D03*
X466725Y270510D03*
X411480Y209550D03*
X182880Y215265D03*
X150495Y198120D03*
X22860Y188595D03*
X7620Y173355D03*
X996315Y523875D03*
X828675Y312420D03*
X533400Y285750D03*
X462915Y219075D03*
X1007745Y403860D03*
X965835Y352425D03*
X828675Y262890D03*
X693420Y70485D03*
X609600Y70485D03*
X954405Y512445D03*
X840105Y321945D03*
X809625Y321945D03*
X649605Y323850D03*
X518160Y285750D03*
X462915Y243840D03*
X941070Y485775D03*
X851535Y274320D03*
X630555Y257175D03*
X571500Y260985D03*
X537210Y230505D03*
X466725Y209550D03*
X579120Y274320D03*
X521970Y129540D03*
X1186815Y556260D03*
X1042035Y281940D03*
X687705Y234315D03*
X354330Y573405D03*
X516255Y529590D03*
X1346835Y321945D03*
X1040130Y188595D03*
X950595Y177165D03*
X542925Y184785D03*
X569595Y217170D03*
X565785Y268605D03*
X516255Y78105D03*
X462915Y66675D03*
X426720Y66675D03*
X211455Y91440D03*
X1030605Y110490D03*
X129540Y289560D03*
X116205Y276225D03*
X234315Y123825D03*
X274320Y85725D03*
X542925Y152400D03*
X855345Y74295D03*
X615315Y62865D03*
X521970Y85725D03*
X504825Y118110D03*
X300990Y78105D03*
X264795Y160020D03*
X264795Y179070D03*
X238125Y230505D03*
X331470Y375285D03*
X920115Y499110D03*
X899160Y472440D03*
X828675Y415290D03*
X828675Y379095D03*
X582930Y377190D03*
X331470Y413385D03*
X339090Y381000D03*
X489585Y262890D03*
X521970Y104775D03*
X552450Y501015D03*
X584835Y508635D03*
X605790Y516255D03*
X615315Y468630D03*
X744855Y340995D03*
X744855Y314325D03*
X758190Y350520D03*
X758190Y314325D03*
X998220Y139065D03*
X1527810Y64770D03*
X478155Y59055D03*
X535305Y381000D03*
X1021080Y245745D03*
X912495Y388620D03*
X527685Y312420D03*
X470535Y291465D03*
X432435Y106680D03*
X312420Y104775D03*
X285750Y104775D03*
X219075Y104775D03*
X601980Y462915D03*
X520065Y468630D03*
X403860Y396240D03*
X118110Y255270D03*
X91440Y78105D03*
X586740Y459105D03*
X813435Y251460D03*
X982980Y238125D03*
X1005840Y230505D03*
X1183005Y180975D03*
X1198245Y196215D03*
X782955Y415290D03*
X752475Y369570D03*
X643890Y377190D03*
X683895Y441960D03*
X643890Y464820D03*
X417195Y295275D03*
X542925Y222885D03*
X569595Y232410D03*
X655320Y234315D03*
X748665Y241935D03*
X815340Y167640D03*
M02*
